<svg width="95" height="95" viewBox="0 0 95 95" fill="none" xmlns="http://www.w3.org/2000/svg"><path opacity=".1" d="M84.286 16.945V63.47a2.746 2.746 0 01-2.745 2.745H13.835a2.746 2.746 0 01-2.745-2.745V16.945a2.746 2.746 0 012.745-2.744h67.706a2.746 2.746 0 012.745 2.744z" fill="#00345E"/><path d="M84.286 20.788v46.525a2.746 2.746 0 01-2.745 2.745H13.835a2.746 2.746 0 01-2.745-2.745V20.788a2.746 2.746 0 012.745-2.745h67.706a2.746 2.746 0 012.745 2.745z" fill="#fff"/><path d="M81.541 18.043H65.804v52.015h15.737a2.746 2.746 0 002.745-2.745V20.788a2.746 2.746 0 00-2.745-2.745z" fill="#F2F2F7"/><path d="M80.9 35.455l-1.315-4.621a.917.917 0 00-.88-.666H74.24a.917.917 0 00-.88.666l-1.316 4.62a18.388 18.388 0 00-5.162 2.138l-4.198-2.337a.915.915 0 00-1.092.152l-3.157 3.158a.917.917 0 00-.154 1.093l2.339 4.197a18.406 18.406 0 00-2.14 5.16l-4.62 1.318a.914.914 0 00-.664.88v4.465c0 .408.271.767.664.88l4.62 1.316a18.32 18.32 0 001.308 3.625H73.12a8.722 8.722 0 013.353-16.776 8.722 8.722 0 017.813 4.84v-12.92a18.406 18.406 0 00-3.385-1.188z" fill="#46EFB2"/><path d="M80.9 35.455l-1.315-4.621a.917.917 0 00-.88-.666H74.24a.917.917 0 00-.88.666l-1.316 4.62a18.388 18.388 0 00-5.162 2.138l-4.198-2.337a.915.915 0 00-1.092.152l-3.157 3.158a.917.917 0 00-.154 1.093l2.339 4.197a18.406 18.406 0 00-2.14 5.16l-4.62 1.318a.914.914 0 00-.664.88v4.465c0 .408.271.767.664.88l4.62 1.316a18.32 18.32 0 001.308 3.625H73.12a8.722 8.722 0 013.353-16.776 8.722 8.722 0 017.813 4.84v-12.92a18.406 18.406 0 00-3.385-1.188z" fill="#46EFB2"/><path d="M84.286 26.858v-6.07a2.745 2.745 0 00-2.745-2.744H13.835a2.745 2.745 0 00-2.745 2.744v6.07h73.196z" fill="#00CEBD"/><path d="M84.286 27.773H11.091a.915.915 0 110-1.83h73.195a.915.915 0 110 1.83z" fill="#00345E"/><path d="M11.09 60.837v6.476a2.745 2.745 0 002.745 2.745h67.706a2.745 2.745 0 002.745-2.745v-6.476H11.091z" fill="#CAD9E0"/><path d="M84.185 61.752H16.939a.915.915 0 110-1.83h67.246a.915.915 0 110 1.83zM18.06 23.38a.915.915 0 01-.916-.915v-.027a.915.915 0 111.83 0v.027c0 .505-.41.915-.915.915zM21.595 23.38a.915.915 0 01-.915-.915v-.027a.915.915 0 011.83 0v.027c0 .505-.41.915-.915.915zM25.131 23.38a.915.915 0 01-.915-.915v-.027a.915.915 0 111.83 0v.027c0 .505-.41.915-.915.915z" fill="#00345E"/><path d="M81.541 70.973H13.835a3.664 3.664 0 01-3.66-3.66V20.788a3.664 3.664 0 013.66-3.66h67.706a3.664 3.664 0 013.66 3.66v6.07a.915.915 0 11-1.83 0v-6.07c0-1.009-.82-1.83-1.83-1.83H13.835c-1.009 0-1.83.822-1.83 1.83v46.525c0 1.009.821 1.83 1.83 1.83h67.706c1.01 0 1.83-.821 1.83-1.83V31.898a.915.915 0 111.83 0v35.415a3.664 3.664 0 01-3.66 3.66z" fill="#00345E"/><path d="M48.367 50.973H17.855a.916.916 0 110-1.833h30.512a.916.916 0 110 1.833z" fill="#D9E4E3"/><path d="M37.388 43.289H17.855a.916.916 0 110-1.833h19.533a.916.916 0 110 1.833z" fill="#E6E6E6"/><path d="M48.367 54.608H17.855a.916.916 0 110-1.833h30.512a.916.916 0 010 1.833z" fill="#D9E4E3"/><path d="M20.261 37.833a.912.912 0 01-.646-.268l-2.203-2.203a.915.915 0 010-1.294l2.203-2.202a.915.915 0 011.293 1.294l-1.555 1.556 1.555 1.555a.915.915 0 01-.647 1.562zM28.818 37.832a.915.915 0 01-.647-1.562l1.556-1.555-1.556-1.555a.915.915 0 111.294-1.294l2.202 2.202a.915.915 0 010 1.294l-2.202 2.202a.911.911 0 01-.647.268zM23.296 37.833a.915.915 0 01-.796-1.365l2.487-4.405a.915.915 0 011.593.9l-2.487 4.404a.915.915 0 01-.797.466z" fill="#00345E"/><path d="M70.205 54.608h-2.928a.549.549 0 01-.549-.549V42.921c0-.303.246-.549.55-.549h2.927c.303 0 .55.246.55.55v11.137a.549.549 0 01-.55.55zM64.219 54.608H61.29a.549.549 0 01-.549-.55v-6.89c0-.303.246-.549.55-.549h2.927c.303 0 .549.246.549.55v6.89a.549.549 0 01-.55.549zM76.191 54.608h-2.928a.549.549 0 01-.549-.549V39.724c0-.303.246-.55.55-.55h2.927c.303 0 .549.247.549.55v14.335a.549.549 0 01-.549.55z" fill="#4D9ABF"/><path d="M57.34 33.644a1.023 1.023 0 100-2.046 1.023 1.023 0 000 2.046zM54.245 33.644a1.023 1.023 0 100-2.046 1.023 1.023 0 000 2.046zM51.15 33.644a1.023 1.023 0 100-2.046 1.023 1.023 0 000 2.046z" fill="#00CEBD"/></svg>