<svg width="97" height="97" viewBox="0 0 97 97" fill="none" xmlns="http://www.w3.org/2000/svg"><path d="M77.638 50.122L63.572 44.29l14.066-5.832c1.557-.646 1.557-2.85 0-3.496L49.124 23.139a1.893 1.893 0 00-1.45 0L19.16 34.962c-1.557.645-1.557 2.85 0 3.496l14.065 5.832-14.065 5.832c-1.557.646-1.557 2.851 0 3.497l14.065 5.832-14.065 5.831c-1.557.646-1.557 2.851 0 3.497l28.514 11.823c.464.192.986.192 1.45 0l28.514-11.823c1.557-.646 1.557-2.851 0-3.497L63.572 59.45l14.066-5.832c1.557-.645 1.557-2.85 0-3.496z" fill="#E9EBEB"/><g opacity=".2" fill="#6583FE"><path opacity=".2" d="M12.41 58.212l-.883.882V21.211a.946.946 0 00-1.893 0v37.883l-.882-.882a.946.946 0 00-1.338 1.338l2.498 2.498a.944.944 0 001.338 0l2.498-2.498a.946.946 0 10-1.338-1.338zM89.384 44.19l-2.498-2.498a.946.946 0 00-1.338 0L83.05 44.19a.946.946 0 101.338 1.339l.883-.883v37.883a.946.946 0 001.892 0V44.646l.883.883a.944.944 0 001.338 0 .947.947 0 000-1.339z"/></g><path d="M77.638 64.993L49.123 76.816a1.886 1.886 0 01-1.45 0L19.16 64.993c-1.557-.645-1.557-2.85 0-3.495l9.618-3.988 18.895-7.835a1.886 1.886 0 011.45 0L68.02 57.51l9.618 3.988c1.557.645 1.557 2.85 0 3.495z" fill="#67CED0"/><path d="M68.02 57.51l-17.591 7.294a5.303 5.303 0 01-4.06 0L28.78 57.51l18.894-7.835a1.886 1.886 0 011.45 0L68.02 57.51z" fill="#0E7E97"/><path d="M67.03 63.246l-18.632 7.726-18.632-7.726 6.424-2.663 12.208-5.062 12.209 5.063 6.423 2.662z" fill="#0E7E97"/><path d="M60.607 60.584l-10.178 4.22a5.302 5.302 0 01-4.06 0l-10.18-4.22L48.4 55.52l12.208 5.063z" fill="#055C82"/><path d="M77.638 49.834L49.123 61.656a1.887 1.887 0 01-1.45 0L19.16 49.835c-1.557-.645-1.557-2.852 0-3.498l9.618-3.987 18.895-7.835a1.887 1.887 0 011.45 0l18.897 7.835 9.618 3.988c1.557.645 1.557 2.852 0 3.497z" fill="#2B9BB4"/><path d="M68.02 42.349l-17.591 7.294a5.268 5.268 0 01-2.031.403 5.266 5.266 0 01-2.029-.403l-17.59-7.294 18.894-7.835a1.887 1.887 0 011.45 0l18.897 7.835z" fill="#0E7E97"/><path d="M67.03 48.085L48.398 55.81l-18.632-7.725 6.424-2.663 12.208-5.062 12.209 5.062 6.423 2.663z" fill="#00CEBD"/><path d="M60.607 45.422l-10.178 4.22a5.268 5.268 0 01-2.03.404 5.266 5.266 0 01-2.03-.403l-10.18-4.22L48.4 40.36l12.208 5.062z" fill="#2B9BB4"/><path d="M47.674 19.354L19.16 31.177c-1.557.645-1.557 2.85 0 3.496l28.514 11.823c.464.192.986.192 1.45 0l28.514-11.823c1.557-.645 1.557-2.85 0-3.496L49.124 19.354a1.893 1.893 0 00-1.45 0z" fill="#97FFD2"/><path d="M29.767 32.925L48.399 25.2l18.632 7.725-18.632 7.725-18.632-7.725z" fill="#fff"/><path d="M79.752 48.085c0-1.17-.671-2.175-1.752-2.623l-11.958-4.957L78 35.547a2.795 2.795 0 001.752-2.622c0-1.17-.671-2.174-1.752-2.622L49.486 18.48a2.82 2.82 0 00-2.174 0L18.797 30.302a2.795 2.795 0 00-1.751 2.623c0 1.17.671 2.174 1.751 2.622l11.958 4.959-11.957 4.956a2.795 2.795 0 00-1.752 2.623c0 1.17.672 2.175 1.752 2.623l11.956 4.957-11.957 4.958a2.795 2.795 0 00-1.751 2.622c0 1.17.67 2.175 1.751 2.622L47.312 77.69a2.835 2.835 0 002.174 0l7.54-3.126a.946.946 0 00-.725-1.748l-7.54 3.126a.94.94 0 01-.725 0L19.522 64.12a.928.928 0 01-.584-.874c0-.149.042-.65.584-.875l13.703-5.681 14.086 5.84c.351.146.72.22 1.088.22.368 0 .737-.074 1.086-.22l14.087-5.84 13.703 5.681a.928.928 0 01.584.875c0 .148-.042.649-.584.874L62.26 70.346a.946.946 0 00.725 1.748L78 65.868a2.795 2.795 0 001.752-2.622c0-1.17-.671-2.174-1.752-2.622l-11.957-4.958 11.956-4.957a2.796 2.796 0 001.753-2.624zm-2.477.875L48.76 60.783a.937.937 0 01-.723 0L19.523 48.96a.928.928 0 01-.584-.875c0-.148.042-.65.584-.874l14.065-5.831a.946.946 0 000-1.749L19.522 33.8a.928.928 0 01-.584-.874c0-.148.043-.65.584-.874l28.514-11.823a.943.943 0 01.725 0L77.275 32.05a.928.928 0 01.584.874c0 .148-.042.65-.584.874L48.761 45.622a.94.94 0 01-.725 0l-9.131-3.787a.946.946 0 10-.725 1.749l9.132 3.786a2.82 2.82 0 002.174 0l14.086-5.84 13.703 5.68a.929.929 0 01.585.875c0 .149-.043.65-.585.875zM12.41 54.427l-.883.883V17.425a.946.946 0 00-1.893 0V55.31l-.882-.882a.946.946 0 00-1.338 1.338l2.498 2.498a.943.943 0 001.338 0l2.498-2.498a.946.946 0 10-1.338-1.338zM89.384 40.405l-2.498-2.498a.947.947 0 00-1.338 0l-2.498 2.498a.946.946 0 101.338 1.339l.883-.883v37.883a.946.946 0 001.892 0V40.861l.883.883a.944.944 0 001.338 0 .947.947 0 000-1.339z" fill="#00345E"/><path d="M89.857 23.839l.189-.19a.288.288 0 000-.4.287.287 0 00-.402 0l-.189.189a.288.288 0 000 .401.288.288 0 00.402 0z" fill="#6583FE"/></svg>