<svg width="115" height="115" viewBox="0 0 115 115" fill="none" xmlns="http://www.w3.org/2000/svg"><path opacity=".1" d="M103.199 32.282c0-9.795-7.94-17.735-17.736-17.735-7.47 0-13.856 4.62-16.47 11.157H15.636a3.774 3.774 0 00-3.774 3.774v49.199a3.774 3.774 0 003.774 3.774H84.35a3.774 3.774 0 003.774-3.774V49.818c8.533-1.283 15.075-8.645 15.075-17.536z" fill="#00345E"/><path d="M61.314 101.644H38.671l2.95-11.7 1.578-6.248h13.587l1.577 6.249 2.951 11.699z" fill="#ABC6C6"/><path d="M58.363 89.945H41.622l1.577-6.25h13.587l1.577 6.25z" fill="#8CA8A0"/><path d="M61.315 102.757H38.67a1.114 1.114 0 01-1.08-1.387l3.564-14.123a1.114 1.114 0 012.16.545L40.1 100.53h19.785l-3.243-12.852a1.114 1.114 0 112.16-.545l3.593 14.239a1.113 1.113 0 01-1.08 1.386z" fill="#00345E"/><path d="M84.35 87.129H15.636a3.774 3.774 0 01-3.774-3.774V34.156a3.774 3.774 0 013.774-3.774H84.35a3.774 3.774 0 013.774 3.774v49.199a3.774 3.774 0 01-3.774 3.774z" fill="#F5F5F5"/><path d="M88.123 34.155v23.381c-.868.13-1.755.199-2.66.199-9.795 0-17.736-7.941-17.736-17.735 0-3.545 1.04-6.847 2.832-9.618h13.79a3.773 3.773 0 013.774 3.773z" fill="#E6E9ED"/><path d="M60.456 33.53H78.72V77.07H60.455V33.53z" fill="#E1EBE0"/><path d="M78.721 33.53v22.876c-6.453-2.652-10.994-9-10.994-16.406 0-2.283.43-4.464 1.217-6.47h9.777z" fill="#E6E6E6"/><path d="M81.78 77.07H57.397V59.043c0-.378.306-.684.684-.684h23.014c.378 0 .684.306.684.684v18.025z" fill="#CCFFF0"/><path d="M81.78 63.826H57.397v-4.782c0-.378.306-.684.684-.684h23.014c.378 0 .684.306.684.684v4.782zM88.124 39.999v-5.843a3.774 3.774 0 00-3.774-3.774H15.636a3.774 3.774 0 00-3.774 3.774V40h76.262z" fill="#00CEBD"/><path d="M67.727 41.113H11.86a1.114 1.114 0 110-2.228h55.866a1.114 1.114 0 110 2.228z" fill="#00345E"/><path d="M11.861 77.07v6.285a3.774 3.774 0 003.775 3.774H84.35a3.774 3.774 0 003.774-3.774v-6.286H11.86z" fill="#CAD9E0"/><path d="M65.153 102.757h-30.32a1.114 1.114 0 010-2.228h30.32a1.114 1.114 0 010 2.228zM19.464 36.32a1.114 1.114 0 01-1.114-1.115v-.029a1.114 1.114 0 112.228 0v.03c0 .614-.498 1.113-1.114 1.113zM23.323 36.32a1.114 1.114 0 01-1.114-1.115v-.029a1.114 1.114 0 112.227 0v.03c0 .614-.498 1.113-1.113 1.113zM27.18 36.32a1.114 1.114 0 01-1.113-1.115v-.029a1.114 1.114 0 112.227 0v.03c0 .614-.498 1.113-1.114 1.113zM84.35 88.243H15.636a4.894 4.894 0 01-4.888-4.888v-6.286c0-.615.498-1.114 1.114-1.114H87.01v-20.98a1.114 1.114 0 112.228 0v28.38a4.894 4.894 0 01-4.888 4.888zm-71.374-10.06v5.172a2.663 2.663 0 002.66 2.66H84.35a2.663 2.663 0 002.66-2.66v-5.172H12.976z" fill="#00345E"/><path d="M11.862 71.908a1.114 1.114 0 01-1.114-1.114V34.156a4.893 4.893 0 014.888-4.888h47.112a1.114 1.114 0 110 2.228H15.636a2.663 2.663 0 00-2.66 2.66v36.638c0 .615-.5 1.114-1.114 1.114z" fill="#00345E"/><path d="M85.463 54.696c9.795 0 17.736-7.94 17.736-17.735 0-9.795-7.94-17.736-17.736-17.736-9.795 0-17.735 7.94-17.735 17.736 0 9.794 7.94 17.735 17.735 17.735z" fill="#46EFB2"/><path d="M85.463 55.81c-10.393 0-18.849-8.456-18.849-18.85 0-10.393 8.456-18.849 18.85-18.849 10.393 0 18.849 8.456 18.849 18.85 0 10.393-8.456 18.849-18.85 18.849zm0-35.471c-9.165 0-16.621 7.457-16.621 16.621 0 9.166 7.456 16.622 16.621 16.622 9.166 0 16.622-7.456 16.622-16.622 0-9.165-7.457-16.621-16.622-16.621z" fill="#00345E"/><path d="M85.463 50.11c7.263 0 13.15-5.887 13.15-13.15 0-7.262-5.887-13.15-13.15-13.15-7.262 0-13.15 5.888-13.15 13.15 0 7.263 5.888 13.15 13.15 13.15z" fill="#F8F8F8"/><path d="M82.919 42.885c-.453 0-.888-.18-1.209-.5l-3.493-3.495a1.709 1.709 0 112.417-2.416l2.285 2.285 7.374-7.375a1.71 1.71 0 012.417 2.417l-8.583 8.583c-.32.321-.755.501-1.208.501z" fill="#46EFB2"/><path d="M40.424 54.975H20.379a1.141 1.141 0 010-2.282h20.045a1.141 1.141 0 110 2.282z" fill="#D9E4E3"/><path d="M51.537 54.975h-5.475a1.141 1.141 0 010-2.282h5.475a1.141 1.141 0 010 2.282z" fill="#E6E6E6"/><path d="M51.537 59.502H20.38a1.141 1.141 0 010-2.283h31.158a1.141 1.141 0 010 2.283z" fill="#D9E4E3"/><path d="M21.645 50.243c-.295 0-.579-.117-.787-.326l-1.555-1.554a1.114 1.114 0 111.575-1.575l.767.766 2.736-2.735a1.114 1.114 0 011.575 1.575l-3.523 3.523a1.113 1.113 0 01-.788.326z" fill="#00345E"/><path d="M26.752 73.194h-6.374a1.141 1.141 0 010-2.282h6.374a1.141 1.141 0 010 2.282z" fill="#D9E4E3"/><path d="M51.537 73.194H32.39a1.141 1.141 0 010-2.282h19.147a1.141 1.141 0 010 2.282z" fill="#E6E6E6"/><path d="M21.645 68.463c-.295 0-.578-.117-.787-.326l-1.555-1.555a1.114 1.114 0 111.575-1.575l.767.767 2.736-2.736a1.114 1.114 0 111.575 1.576l-3.523 3.523a1.114 1.114 0 01-.788.326z" fill="#00345E"/><path d="M73.356 68.744a1.245 1.245 0 100-2.49 1.245 1.245 0 000 2.49zM69.589 68.744a1.245 1.245 0 100-2.49 1.245 1.245 0 000 2.49zM65.822 68.744a1.245 1.245 0 100-2.49 1.245 1.245 0 000 2.49z" fill="#F5F5F5"/></svg>