<svg width="115" height="115" viewBox="0 0 115 115" fill="none" xmlns="http://www.w3.org/2000/svg"><path opacity=".1" d="M101.752 22.209v56.64a3.343 3.343 0 01-3.341 3.342H15.984a3.343 3.343 0 01-3.341-3.342V22.21a3.343 3.343 0 013.341-3.342h82.427a3.343 3.343 0 013.341 3.342z" fill="#00345E"/><path d="M69.831 103.066H44.564l5.053-20.028h15.161l5.053 20.028z" fill="#ABC6C6"/><path d="M66.538 90.011H47.857l1.76-6.973h15.161l1.76 6.973z" fill="#8CA8A0"/><path d="M101.752 26.888v56.64a3.343 3.343 0 01-3.341 3.342H15.984a3.343 3.343 0 01-3.341-3.342v-56.64a3.343 3.343 0 013.341-3.342h82.427a3.343 3.343 0 013.341 3.342z" fill="#fff"/><path d="M50.261 75.643a6.937 6.937 0 0113.873 0H50.261z" fill="#00345E"/><path d="M101.752 34.277v-7.39a3.342 3.342 0 00-3.341-3.34H15.984a3.342 3.342 0 00-3.341 3.34v7.39h89.109z" fill="#faa926"/><path d="M12.643 75.643v7.884a3.342 3.342 0 003.341 3.342h82.427a3.342 3.342 0 003.341-3.342v-7.884h-89.11z" fill="#faa926"/><path d="M75.996 75.643c0-10.382-8.416-18.799-18.798-18.799-10.383 0-18.8 8.417-18.8 18.8h-7.11c0-14.31 11.6-25.91 25.91-25.91s25.91 11.6 25.91 25.91h-7.112z" fill="#faa926"/><path d="M57.197 56.844c-10.382 0-18.799 8.417-18.799 18.8h-7.11c0-14.31 11.6-25.91 25.91-25.91v7.11z" fill="#4D9ABF"/><path d="M76.548 58.416l-5.04 5.04a18.747 18.747 0 00-14.31-6.613v-7.11c7.694 0 14.607 3.355 19.35 8.683z" fill="#76C2B5"/><path d="M57.198 49.733v7.11a18.747 18.747 0 00-14.311 6.612l-5.04-5.039c4.743-5.328 11.656-8.683 19.35-8.683z" fill="#006686"/><path d="M56.602 71.004l.031.02-.356.524a1.114 1.114 0 001.841 1.254l.356-.523.031.02a1.115 1.115 0 001.254-1.84l-.03-.022 4.343-6.378a1.114 1.114 0 00-1.84-1.254l-4.345 6.378-.03-.02a1.11 1.11 0 00-1.548.293 1.114 1.114 0 00.294 1.548z" fill="#00345E"/><path d="M36.025 40.98H21.191a1.141 1.141 0 010-2.283h14.834a1.141 1.141 0 010 2.283z" fill="#faa926"/><path d="M32.015 45.212h-6.814a1.141 1.141 0 010-2.282h6.814a1.141 1.141 0 010 2.282z" fill="#00CEBD"/><path d="M93.204 40.98H78.37a1.141 1.141 0 010-2.283h14.834a1.141 1.141 0 010 2.283z" fill="#faa926"/><path d="M89.194 45.212H82.38a1.141 1.141 0 010-2.282h6.814a1.141 1.141 0 010 2.282z" fill="#00CEBD"/><path d="M30.133 56.351h-3.05c-.37 0-.668-.3-.668-.668v-5.458c0-.37.299-.669.668-.669h3.05c.37 0 .669.3.669.669v5.458c0 .369-.3.668-.669.668zM87.312 56.351h-3.05c-.37 0-.669-.3-.669-.668v-5.458c0-.37.3-.669.669-.669h3.05c.37 0 .668.3.668.669v5.458c0 .369-.299.668-.668.668z" fill="#E6E6E6"/><path d="M60.965 45.316a1.245 1.245 0 100-2.49 1.245 1.245 0 000 2.49zM57.198 45.316a1.245 1.245 0 100-2.49 1.245 1.245 0 000 2.49zM53.43 45.316a1.245 1.245 0 100-2.49 1.245 1.245 0 000 2.49z" fill="#00CEBD"/><path d="M21.127 27.782c-.616 0-1.114.499-1.114 1.114v.032a1.114 1.114 0 002.227 0v-.032c0-.615-.498-1.114-1.113-1.114zM25.432 27.782c-.615 0-1.114.499-1.114 1.114v.032a1.114 1.114 0 002.228 0v-.032c0-.615-.5-1.114-1.114-1.114zM29.736 27.782c-.615 0-1.113.499-1.113 1.114v.032a1.114 1.114 0 002.227 0v-.032c0-.615-.498-1.114-1.114-1.114z" fill="#00345E"/><path d="M98.41 22.432H15.985a4.46 4.46 0 00-4.455 4.456v56.64a4.46 4.46 0 004.455 4.455H47.22l-3.524 13.968h-3.415a1.114 1.114 0 000 2.228h33.833a1.114 1.114 0 000-2.228h-3.416l-3.524-13.968h31.237a4.46 4.46 0 004.455-4.456v-7.884c0-.615-.499-1.113-1.114-1.113-.021 0-.041.005-.061.006-.021-.001-.041-.006-.062-.006H13.757V35.39h86.881v34.117a1.114 1.114 0 002.228 0v-42.62a4.46 4.46 0 00-4.455-4.456zM68.4 101.951H45.995l3.524-13.968h15.359L68.4 101.95zm32.238-25.194v6.77a2.23 2.23 0 01-2.227 2.228H15.984a2.23 2.23 0 01-2.227-2.228v-6.77h86.881zM13.757 33.164v-6.276c0-1.229.999-2.228 2.227-2.228h82.427c1.228 0 2.227 1 2.227 2.228v6.275H13.757z" fill="#00345E"/></svg>