<svg width="115" height="115" viewBox="0 0 115 115" fill="none" xmlns="http://www.w3.org/2000/svg"><path opacity=".1" d="M105.346 40.742V30.095c0-1.23-.998-2.228-2.228-2.228H90.623c-1.23 0-2.228.997-2.228 2.228v6.974a20.668 20.668 0 00-6.334-.257 22.875 22.875 0 00-3.388-10.445 5.173 5.173 0 10-7.1-7.229 22.901 22.901 0 00-12.464-3.665c-12.146 0-22.093 9.41-22.951 21.339-10.975-1.245-21.085 6.37-22.822 17.387a20.658 20.658 0 002.042 12.72h-2.95c-.926 0-1.677.75-1.677 1.676v15.716c0 .926.75 1.676 1.677 1.676H36.57c.926 0 1.676-.75 1.676-1.675v-5.624c14.801.959 40.093.707 49.372-.757 11.321-1.787 19.05-12.412 17.264-23.733a20.653 20.653 0 00-5.616-11.227h3.85a2.23 2.23 0 002.229-2.229zM30.107 27.043a5.172 5.172 0 10-2.38-10.067 5.172 5.172 0 002.38 10.067z" fill="#00345E"/><path d="M104.882 58.876c-1.738-11.016-11.847-18.63-22.821-17.386-.858-11.927-10.805-21.338-22.952-21.338-12.146 0-22.094 9.41-22.951 21.338-10.976-1.245-21.085 6.37-22.823 17.388-1.785 11.32 5.945 21.946 17.266 23.731 11.213 1.768 45.805 1.77 57.018 0 11.32-1.787 19.05-12.412 17.263-23.733z" fill="#faa926"/><path d="M101.466 50.322H90.623a2.227 2.227 0 01-2.228-2.228v-6.347a20.8 20.8 0 0113.071 8.575z" fill="#A8CFC8"/><path d="M84.305 52.712v30.306c-12.323 1.223-38.067 1.223-50.391 0V52.712c0-.369.299-.668.668-.668h49.054c.37 0 .669.299.669.668z" fill="#CCFFF0"/><path d="M75.246 56.083l-1.517-2.033h-29.24l-1.517 2.033c-1.528 2.05-.066 4.964 2.489 4.964h6.205v22.825c4.881.084 10.007.084 14.887 0V61.047h6.204c2.556 0 4.017-2.914 2.489-4.964z" fill="#faa926"/><path d="M45.461 58.373h6.204v36.613c0 1.23.997 2.228 2.227 2.228h10.434c1.23 0 2.228-.998 2.228-2.228V58.373h6.203c2.556 0 4.018-2.915 2.49-4.963L61.597 35.124a3.106 3.106 0 00-4.977 0L42.973 53.41c-1.53 2.048-.068 4.963 2.488 4.963z" fill="#4D9ABF"/><path d="M36.571 90.666H12.428c-.926 0-1.677-.75-1.677-1.676V73.274c0-.926.75-1.677 1.677-1.677H36.57c.926 0 1.676.75 1.676 1.677V88.99c0 .925-.75 1.676-1.676 1.676z" fill="#fff"/><path d="M19.29 84.927a1.11 1.11 0 01-.788-.326L15.82 81.92a1.114 1.114 0 010-1.576l2.682-2.681a1.114 1.114 0 011.575 1.575l-1.894 1.894 1.894 1.894a1.114 1.114 0 01-.787 1.901zM29.709 77.336c.285 0 .57.109.788.327l2.681 2.681c.435.435.435 1.14 0 1.576L30.497 84.6a1.114 1.114 0 01-1.576-1.575l1.894-1.894-1.894-1.894a1.114 1.114 0 01.788-1.902zM22.984 84.928a1.114 1.114 0 01-.97-1.662l3.03-5.363a1.114 1.114 0 011.94 1.095l-3.029 5.363a1.114 1.114 0 01-.971.567z" fill="#00CEBD"/><path d="M103.117 47.649H90.623a2.228 2.228 0 01-2.228-2.228V34.773c0-1.23.997-2.228 2.228-2.228h12.494c1.231 0 2.228.998 2.228 2.228v10.648c0 1.23-.997 2.228-2.228 2.228z" fill="#fff"/><path d="M95.355 43.893a1.114 1.114 0 01-.969-1.662l3.028-5.363a1.114 1.114 0 011.94 1.096l-3.028 5.362a1.114 1.114 0 01-.97.567z" fill="#00345E"/><path d="M67.526 89.109a5.173 5.173 0 100-10.346 5.173 5.173 0 000 10.346z" fill="#fff"/><path d="M28.919 31.873a5.173 5.173 0 100-10.346 5.173 5.173 0 000 10.346zM75.868 31.873a5.173 5.173 0 100-10.346 5.173 5.173 0 000 10.346z" fill="#E6E6E6"/><path d="M106.459 45.421V34.773a3.345 3.345 0 00-3.341-3.341h-3.18a1.114 1.114 0 100 2.227h3.18c.614 0 1.114.5 1.114 1.114v10.648c0 .614-.5 1.114-1.114 1.114H90.623c-.614 0-1.114-.5-1.114-1.114V34.773c0-.614.5-1.114 1.114-1.114h3.18a1.114 1.114 0 100-2.227h-3.18a3.346 3.346 0 00-3.342 3.341v5.663a21.797 21.797 0 00-4.217-.151 24.177 24.177 0 00-2.934-8.967 6.27 6.27 0 002.026-4.617 6.294 6.294 0 00-6.287-6.287 6.268 6.268 0 00-4.542 1.946 24.073 24.073 0 00-12.218-3.322 24.039 24.039 0 00-16.47 6.497 24.033 24.033 0 00-7.485 14.75c-11.204-.698-21.15 7.2-22.919 18.42a21.72 21.72 0 001.4 11.78h-1.207a2.793 2.793 0 00-2.79 2.789V88.99a2.793 2.793 0 002.79 2.79H36.57a2.793 2.793 0 002.79-2.79v-4.44c3.263.191 7.097.334 11.19.416v10.02c0 1.843 1.5 3.342 3.342 3.342h10.433a3.346 3.346 0 003.342-3.341v-4.768a6.295 6.295 0 006.086-5.427c6.166-.232 11.012-.605 14.039-1.083a21.722 21.722 0 0014.274-8.736 21.723 21.723 0 003.916-16.27 21.755 21.755 0 00-4.279-9.94h1.414c1.842 0 3.341-1.5 3.341-3.342zm-30.59-22.78c2.238 0 4.059 1.821 4.059 4.06a4.064 4.064 0 01-4.06 4.059 4.064 4.064 0 01-4.059-4.06 4.064 4.064 0 014.06-4.059zm-38.736 66.35c0 .309-.252.56-.562.56H12.427a.563.563 0 01-.562-.56V73.273c0-.31.252-.562.562-.562h24.144c.31 0 .562.252.562.562V88.99zm30.393-.996a4.064 4.064 0 01-4.059-4.06 4.064 4.064 0 014.06-4.059 4.064 4.064 0 014.059 4.06 4.064 4.064 0 01-4.06 4.059zm36.256-28.946a19.507 19.507 0 01-3.517 14.614 19.51 19.51 0 01-12.82 7.846c-2.943.464-7.701.829-13.784 1.057a6.296 6.296 0 00-5.994-4.913V59.487h5.09a4.197 4.197 0 003.772-2.328 4.197 4.197 0 00-.39-4.415L62.49 34.458a4.183 4.183 0 00-3.382-1.695 4.183 4.183 0 00-3.381 1.695L42.08 52.744a4.197 4.197 0 00-.39 4.415 4.197 4.197 0 003.771 2.328h5.09v18.249a1.114 1.114 0 102.228 0V58.373c0-.615-.499-1.114-1.114-1.114H45.46c-.77 0-1.435-.41-1.78-1.099a1.956 1.956 0 01.184-2.084l13.648-18.285c.38-.509.962-.8 1.596-.8.635 0 1.217.291 1.596.8l13.648 18.285c.461.617.53 1.396.185 2.084a1.956 1.956 0 01-1.78 1.1h-6.204c-.615 0-1.114.498-1.114 1.113v19.633a6.297 6.297 0 00-4.2 5.93 6.297 6.297 0 004.2 5.93v5.12c0 .615-.5 1.114-1.114 1.114H53.893c-.614 0-1.114-.5-1.114-1.114V83.872c0-.608-.486-1.103-1.094-1.114-4.53-.078-8.775-.23-12.324-.44v-9.044a2.793 2.793 0 00-2.79-2.79H16.072a19.504 19.504 0 01-1.636-11.432 19.59 19.59 0 0121.596-16.455 1.11 1.11 0 001.237-1.027 21.812 21.812 0 016.892-14.408 21.818 21.818 0 0114.948-5.896 21.85 21.85 0 0110.984 2.952 6.248 6.248 0 00-.511 2.482 6.294 6.294 0 006.286 6.287c.843 0 1.646-.167 2.38-.47a21.928 21.928 0 012.702 9.053 1.114 1.114 0 001.236 1.027 19.62 19.62 0 015.095.09v2.734c0 1.842 1.5 3.342 3.342 3.342h8.165a19.525 19.525 0 014.994 10.287zM28.919 32.987a6.294 6.294 0 006.287-6.287 6.294 6.294 0 00-6.287-6.287 6.294 6.294 0 00-6.287 6.287 6.294 6.294 0 006.287 6.287zm0-10.346c2.238 0 4.059 1.821 4.059 4.06a4.064 4.064 0 01-4.06 4.058A4.064 4.064 0 0124.86 26.7c0-2.238 1.82-4.059 4.059-4.059z" fill="#00345E"/><path d="M72.7 72.476a1.245 1.245 0 100-2.49 1.245 1.245 0 000 2.49zM72.7 68.708a1.245 1.245 0 100-2.49 1.245 1.245 0 000 2.49zM72.7 64.941a1.245 1.245 0 100-2.49 1.245 1.245 0 000 2.49z" fill="#00345E"/></svg>