<?xml version="1.0" encoding="UTF-8" standalone="no"?>
<svg
   xmlns:dc="http://purl.org/dc/elements/1.1/"
   xmlns:cc="http://creativecommons.org/ns#"
   xmlns:rdf="http://www.w3.org/1999/02/22-rdf-syntax-ns#"
   xmlns:svg="http://www.w3.org/2000/svg"
   xmlns="http://www.w3.org/2000/svg"
   xmlns:sodipodi="http://sodipodi.sourceforge.net/DTD/sodipodi-0.dtd"
   xmlns:inkscape="http://www.inkscape.org/namespaces/inkscape"
   width="995"
   height="473"
   viewBox="0 0 995 473"
   version="1.1"
   id="svg4640"
   sodipodi:docname="holachats-how-it-works.svg"
   inkscape:version="0.92.1 r15371"
   fill="none">
  <metadata
     id="metadata4646">
    <rdf:RDF>
      <cc:Work
         rdf:about="">
        <dc:format>image/svg+xml</dc:format>
        <dc:type
           rdf:resource="http://purl.org/dc/dcmitype/StillImage" />
        <dc:title></dc:title>
      </cc:Work>
    </rdf:RDF>
  </metadata>
  <defs
     id="defs4644" />
  <sodipodi:namedview
     pagecolor="#ffffff"
     bordercolor="#666666"
     borderopacity="1"
     objecttolerance="10"
     gridtolerance="10"
     guidetolerance="10"
     inkscape:pageopacity="0"
     inkscape:pageshadow="2"
     inkscape:window-width="1920"
     inkscape:window-height="1011"
     id="namedview4642"
     showgrid="false"
     inkscape:zoom="1.0112693"
     inkscape:cx="607.54834"
     inkscape:cy="384.41968"
     inkscape:window-x="-9"
     inkscape:window-y="-9"
     inkscape:window-maximized="1"
     inkscape:current-layer="svg4640" />
  <path
     d="M153.246 396.771c0-17.487 14.176-31.663 31.663-31.663h241.792c17.488 0 31.664 14.176 31.664 31.663 0 17.488-14.176 31.664-31.664 31.664H184.909c-17.487 0-31.663-14.176-31.663-31.664zM178.317 137.628c0-17.487 14.176-31.663 31.664-31.663h702.435c17.488 0 31.664 14.176 31.664 31.663 0 17.488-14.176 31.664-31.664 31.664H209.981c-17.488 0-31.664-14.176-31.664-31.664z"
     id="path4485"
     style="fill:#faa926;fill-opacity:1"
     fill="#00AD9F" />
  <path
     d="M163 136.195a1.5 1.5 0 01-1.5 1.5H57.01a1.5 1.5 0 110-3H161.5a1.5 1.5 0 011.5 1.5zM156.852 399.169a2 2 0 00-2.015-1.985l-99.76.744a2 2 0 00.03 4l99.76-.744a2 2 0 001.985-2.015z"
     id="path4505"
     style="fill:#faa926;fill-opacity:1"
     clip-rule="evenodd"
     fill-rule="evenodd"
     fill="#21BBB0" />
  <path
     d="M56.495 134.695a1.5 1.5 0 011.5 1.5v262.41a1.5 1.5 0 01-3 0v-262.41a1.5 1.5 0 011.5-1.5z"
     id="path4507"
     style="fill:#faa926;fill-opacity:1"
     clip-rule="evenodd"
     fill-rule="evenodd"
     fill="#21BBB0" />
  <path
     d="M0 254.23a7.445 7.445 0 017.445-7.445h93.434a7.444 7.444 0 017.444 7.445v23.44a7.444 7.444 0 01-7.444 7.445H7.445A7.445 7.445 0 010 277.67v-23.44z"
     id="path4509"
     style="fill:#faa926;fill-opacity:1"
     fill="#21BBB0" />
  <path
     d="M894.599 183.458a1.5 1.5 0 011.5 1.5v116.489a1.5 1.5 0 11-3 0V184.958a1.5 1.5 0 011.5-1.5z"
     id="path4513"
     style="fill:#faa926;fill-opacity:1"
     clip-rule="evenodd"
     fill-rule="evenodd"
     fill="#219FBB" />
  <path
     d="M841.59 242.565a7.445 7.445 0 017.445-7.445h93.434a7.445 7.445 0 017.445 7.445v23.44a7.445 7.445 0 01-7.445 7.445h-93.434a7.445 7.445 0 01-7.445-7.445v-23.44z"
     id="path4515"
     style="fill:#faa926;fill-opacity:1"
     fill="#219FBB" />
  <path
     d="M882.187 259.231h-5.651l-1.074 3.222h-3.426l5.822-15.64h2.986l5.855 15.64h-3.427l-1.085-3.222zm-4.78-2.611h3.91l-1.966-5.854-1.944 5.854zM891.382 256.943v5.51h-3.222v-15.64h6.101c1.175 0 2.206.214 3.094.644.895.43 1.583 1.042 2.062 1.837.48.788.72 1.687.72 2.696 0 1.533-.526 2.743-1.579 3.631-1.046.881-2.496 1.322-4.351 1.322h-2.825zm0-2.611h2.879c.852 0 1.5-.2 1.944-.601.452-.401.677-.974.677-1.719 0-.766-.225-1.386-.677-1.859-.451-.472-1.074-.716-1.869-.73h-2.954v4.909zM905.787 262.453h-3.222v-15.64h3.222v15.64zM914.875 259.241c0-.379-.189-.676-.569-.891-.372-.222-.974-.419-1.805-.591-2.764-.58-4.146-1.755-4.146-3.524 0-1.031.426-1.89 1.278-2.578.86-.694 1.98-1.042 3.362-1.042 1.476 0 2.654.348 3.535 1.042.888.695 1.332 1.597 1.332 2.707h-3.105c0-.444-.143-.809-.429-1.095-.287-.294-.735-.441-1.343-.441-.523 0-.928.118-1.214.355-.287.236-.43.537-.43.902 0 .344.161.623.484.838.329.208.88.39 1.654.548.773.15 1.425.322 1.955.515 1.64.602 2.46 1.644 2.46 3.126 0 1.06-.455 1.92-1.364 2.579-.91.651-2.084.977-3.524.977-.974 0-1.84-.172-2.599-.516-.752-.35-1.343-.827-1.773-1.428-.43-.609-.644-1.264-.644-1.966h2.943c.029.551.233.974.612 1.268.38.293.888.44 1.526.44.594 0 1.042-.111 1.342-.333.308-.229.462-.526.462-.892z"
     id="path4517"
     fill="#fff" />
  <path
     d="m 276.01878,324.68269 h -15.994 c 0.47,-1.255 0.87,-2.544 1.194,-3.864 l 8.623,-2.455 a 1.708,1.708 0 0 0 1.24,-1.643 v -8.333 c 0,-0.763 -0.506,-1.434 -1.24,-1.643 l -8.623,-2.455 a 34.403,34.403 0 0 0 -3.991,-9.633 l 4.361,-7.836 a 1.707,1.707 0 0 0 -0.284,-2.037 l -5.893,-5.893 a 1.707,1.707 0 0 0 -2.038,-0.285 l -7.835,4.362 a 34.356,34.356 0 0 0 -9.633,-3.991 l -2.456,-8.623 a 1.707,1.707 0 0 0 -1.642,-1.24 h -8.334 c -0.763,0 -1.433,0.506 -1.642,1.24 l -2.456,8.623 a 34.326,34.326 0 0 0 -8.975,3.609 v -11.09 c 0,-1.234 -1,-2.234 -2.233,-2.234 h -27.25 c -1.234,0 -2.234,1 -2.234,2.234 v 21.67 c 0,1.234 1,2.234 2.234,2.234 h 16.705 a 34.311,34.311 0 0 0 -3.56,8.89 l -8.623,2.455 c -0.734,0.209 -1.24,0.88 -1.24,1.643 v 8.333 c 0,0.763 0.506,1.434 1.24,1.643 l 8.623,2.455 a 34.373,34.373 0 0 0 3.991,9.633 l -4.361,7.836 a 1.707,1.707 0 0 0 0.284,2.037 l 5.893,5.893 c 0.539,0.54 1.371,0.656 2.038,0.285 l 7.835,-4.362 a 34.356,34.356 0 0 0 9.633,3.991 l 2.456,8.623 c 0.209,0.734 0.879,1.24 1.642,1.24 h 8.334 c 0.763,0 1.433,-0.506 1.642,-1.24 l 2.456,-8.623 a 34.26,34.26 0 0 0 3.946,-1.227 v 3.682 c 0,1.234 1,2.233 2.233,2.233 h 33.934 a 2.233,2.233 0 0 0 2.233,-2.233 v -21.671 c 0,-1.233 -1,-2.233 -2.233,-2.233 z"
     id="path4519"
     inkscape:connector-curvature="0"
     style="opacity:0.1;fill:#00345e" />
  <path
     d="m 271.08178,321.39869 v -8.333 c 0,-0.763 -0.506,-1.433 -1.24,-1.642 l -8.623,-2.456 a 34.375,34.375 0 0 0 -3.992,-9.633 l 4.362,-7.835 a 1.707,1.707 0 0 0 -0.285,-2.038 l -5.892,-5.893 a 1.707,1.707 0 0 0 -2.038,-0.284 l -7.835,4.361 a 34.356,34.356 0 0 0 -9.633,-3.991 l -2.456,-8.623 a 1.708,1.708 0 0 0 -1.643,-1.24 h -8.333 c -0.763,0 -1.433,0.506 -1.642,1.24 l -2.456,8.623 a 34.343,34.343 0 0 0 -9.633,3.991 l -7.835,-4.361 a 1.707,1.707 0 0 0 -2.038,0.284 l -5.893,5.893 a 1.705,1.705 0 0 0 -0.284,2.038 l 4.361,7.835 a 34.343,34.343 0 0 0 -3.991,9.633 l -8.623,2.456 a 1.707,1.707 0 0 0 -1.24,1.642 v 8.333 c 0,0.763 0.506,1.434 1.24,1.643 l 8.623,2.456 a 34.356,34.356 0 0 0 3.991,9.633 l -4.361,7.835 a 1.707,1.707 0 0 0 0.284,2.038 l 5.893,5.892 c 0.539,0.54 1.371,0.656 2.038,0.285 l 7.835,-4.362 a 34.343,34.343 0 0 0 9.633,3.991 l 2.456,8.624 a 1.707,1.707 0 0 0 1.642,1.239 h 8.333 c 0.763,0 1.434,-0.506 1.643,-1.239 l 2.456,-8.624 a 34.356,34.356 0 0 0 9.633,-3.991 l 7.835,4.362 a 1.707,1.707 0 0 0 2.038,-0.285 l 5.892,-5.892 c 0.54,-0.54 0.656,-1.372 0.285,-2.038 l -4.362,-7.835 a 34.388,34.388 0 0 0 3.992,-9.633 l 8.623,-2.456 a 1.708,1.708 0 0 0 1.24,-1.643 z"
     id="path4521"
     inkscape:connector-curvature="0"
     style="fill:#faa926;fill-opacity:1" />
  <path
     d="m 210.39978,287.25769 v 13.87 c 0,1.232 -1,2.233 -2.232,2.233 h -12.206 a 34.626,34.626 0 0 1 2.092,-4.026 l -4.362,-7.835 a 1.71,1.71 0 0 1 0.285,-2.038 l 5.893,-5.893 a 1.71,1.71 0 0 1 2.038,-0.285 l 7.835,4.362 c 0.216,-0.131 0.437,-0.261 0.657,-0.388 z"
     id="path4523"
     inkscape:connector-curvature="0"
     style="fill:#e7ffff" />
  <path
     d="m 227.64078,338.17369 c 11.565,0 20.941,-9.376 20.941,-20.941 0,-11.565 -9.376,-20.941 -20.941,-20.941 -11.565,0 -20.941,9.376 -20.941,20.941 0,11.565 9.376,20.941 20.941,20.941 z"
     id="path4525"
     inkscape:connector-curvature="0"
     style="fill:#ccfff0" />
  <path
     d="m 227.64078,334.47269 c 9.522,0 17.24,-7.719 17.24,-17.24 0,-9.522 -7.718,-17.24 -17.24,-17.24 -9.521,0 -17.24,7.718 -17.24,17.24 0,9.521 7.719,17.24 17.24,17.24 z"
     id="path4527"
     inkscape:connector-curvature="0"
     style="fill:#46efb2" />
  <path
     d="m 227.64078,344.41069 c -14.986,0 -27.178,-12.192 -27.178,-27.178 a 1.1135,1.1135 0 1 1 2.227,0 c 0,13.758 11.193,24.95 24.951,24.95 a 1.114,1.114 0 0 1 0,2.228 z m 26.064,-26.064 a 1.113,1.113 0 0 1 -1.113,-1.114 c 0,-13.758 -11.193,-24.951 -24.951,-24.951 a 1.114,1.114 0 0 1 0,-2.228 c 14.986,0 27.178,12.193 27.178,27.179 0,0.615 -0.498,1.114 -1.114,1.114 z"
     id="path4529"
     style="fill:#faa926;fill-opacity:1"
     inkscape:connector-curvature="0" />
  <path
     d="m 222.43178,321.02769 a 1.11,1.11 0 0 1 -0.787,-0.326 l -2.681,-2.681 a 1.115,1.115 0 0 1 0,-1.576 l 2.681,-2.681 a 1.114,1.114 0 1 1 1.575,1.575 l -1.894,1.894 1.894,1.894 a 1.114,1.114 0 0 1 -0.788,1.901 z m 10.417,0 a 1.115,1.115 0 0 1 -0.787,-1.902 l 1.893,-1.893 -1.893,-1.894 a 1.114,1.114 0 1 1 1.575,-1.575 l 2.681,2.681 c 0.435,0.435 0.435,1.14 0,1.575 l -2.681,2.681 a 1.107,1.107 0 0 1 -0.788,0.327 z m -6.723,0 a 1.115,1.115 0 0 1 -0.969,-1.662 l 3.028,-5.362 a 1.1138475,1.1138475 0 1 1 1.94,1.095 l -3.028,5.362 a 1.113,1.113 0 0 1 -0.971,0.567 z"
     id="path4531"
     inkscape:connector-curvature="0"
     style="fill:#00345e" />
  <path
     d="m 208.16778,300.07769 h -27.25 c -1.234,0 -2.234,-1 -2.234,-2.233 v -21.671 c 0,-1.234 1,-2.233 2.234,-2.233 h 27.25 c 1.233,0 2.233,0.999 2.233,2.233 v 21.671 c 0,1.233 -1,2.233 -2.233,2.233 z"
     id="path4533"
     inkscape:connector-curvature="0"
     style="fill:#f5f5f5" />
  <path
     d="m 208.16778,273.94069 h -7.611 v 26.137 h 7.611 c 1.233,0 2.233,-1 2.233,-2.233 v -21.671 c 0,-1.234 -1,-2.233 -2.233,-2.233 z"
     id="path4535"
     inkscape:connector-curvature="0"
     style="fill:#4d9abf" />
  <path
     d="m 210.40078,281.23469 v -5.061 c 0,-1.234 -1,-2.233 -2.233,-2.233 h -27.25 a 2.233,2.233 0 0 0 -2.234,2.233 v 5.061 z"
     id="path4537"
     inkscape:connector-curvature="0"
     style="fill:#ffffff" />
  <path
     d="m 196.06978,294.86369 h -11.075 a 1.1165,1.1165 0 0 1 0,-2.233 h 11.076 a 1.117,1.117 0 0 1 -0.001,2.233 z m -6.029,-4.635 h -5.046 a 1.1165,1.1165 0 0 1 0,-2.233 h 5.046 a 1.117,1.117 0 1 1 0,2.233 z"
     id="path4539"
     inkscape:connector-curvature="0"
     style="fill:#d9e4e3" />
  <path
     d="m 276.01878,355.49869 h -33.934 c -1.233,0 -2.233,-1 -2.233,-2.233 v -21.671 c 0,-1.233 1,-2.233 2.233,-2.233 h 33.934 c 1.233,0 2.233,1 2.233,2.233 v 21.671 c 0,1.233 -1,2.233 -2.233,2.233 z"
     id="path4541"
     inkscape:connector-curvature="0"
     style="fill:#f5f5f5" />
  <path
     d="m 278.25178,336.65569 v -5.061 c 0,-1.233 -1,-2.233 -2.233,-2.233 h -33.934 c -1.233,0 -2.233,1 -2.233,2.233 v 5.061 z"
     id="path4543"
     inkscape:connector-curvature="0"
     style="fill:#006686" />
  <path
     d="m 275.09778,324.46569 h -14.427 c 0.199,-0.613 0.383,-1.232 0.548,-1.854 l 8.007,-2.281 a 2.833,2.833 0 0 0 2.049,-2.713 v -8.334 c 0,-1.254 -0.843,-2.37 -2.049,-2.713 l -8.007,-2.281 a 35.45,35.45 0 0 0 -3.628,-8.755 l 4.05,-7.276 a 2.832,2.832 0 0 0 -0.47,-3.367 l -5.892,-5.892 a 2.834,2.834 0 0 0 -3.368,-0.471 l -7.275,4.05 a 35.485,35.485 0 0 0 -8.755,-3.627 l -2.281,-8.007 a 2.835,2.835 0 0 0 -2.714,-2.049 h -8.333 c -1.254,0 -2.37,0.843 -2.714,2.049 l -2.28,8.007 a 35.468,35.468 0 0 0 -6.966,2.658 v -9.218 a 3.35,3.35 0 0 0 -3.346,-3.347 h -27.25 a 3.35,3.35 0 0 0 -3.347,3.347 v 5.061 c 0,0.615 0.498,1.114 1.114,1.114 h 30.602 v 15.496 a 1.12,1.12 0 0 1 -1.119,1.119 h -27.25 c -0.617,0 -1.12,-0.502 -1.12,-1.119 v -10.474 a 1.1135,1.1135 0 1 0 -2.227,0 v 10.474 a 3.35,3.35 0 0 0 3.347,3.346 h 14.84 a 35.542,35.542 0 0 0 -2.616,6.881 l -8.007,2.28 a 2.835,2.835 0 0 0 -2.049,2.714 v 8.333 c 0,1.255 0.843,2.37 2.049,2.714 l 8.007,2.28 a 35.418,35.418 0 0 0 3.628,8.755 l -4.051,7.276 a 2.834,2.834 0 0 0 0.471,3.367 l 5.892,5.893 a 2.834,2.834 0 0 0 3.368,0.47 l 7.275,-4.05 a 35.47,35.47 0 0 0 8.755,3.627 l 2.281,8.007 a 2.831,2.831 0 0 0 2.713,2.049 h 8.334 a 2.832,2.832 0 0 0 2.713,-2.049 l 2.281,-8.007 a 35.49,35.49 0 0 0 1.936,-0.575 v 2.109 a 3.35,3.35 0 0 0 3.347,3.347 h 33.934 a 3.35,3.35 0 0 0 3.347,-3.347 v -21.671 a 3.35,3.35 0 0 0 -3.347,-3.346 z m -96.221,-48.126 v -3.948 c 0,-0.617 0.503,-1.119 1.12,-1.119 h 27.25 a 1.12,1.12 0 0 1 1.119,1.119 v 3.948 z m 55.842,69.607 a 1.112,1.112 0 0 0 -0.805,0.777 l -2.456,8.623 a 0.596,0.596 0 0 1 -0.571,0.431 h -8.333 a 0.596,0.596 0 0 1 -0.571,-0.431 l -2.456,-8.623 a 1.117,1.117 0 0 0 -0.806,-0.777 33.228,33.228 0 0 1 -9.321,-3.862 1.114,1.114 0 0 0 -1.119,-0.02 l -7.835,4.361 a 0.595,0.595 0 0 1 -0.709,-0.099 l -5.893,-5.893 a 0.595,0.595 0 0 1 -0.098,-0.708 l 4.361,-7.835 c 0.195,-0.35 0.187,-0.777 -0.021,-1.119 a 33.287,33.287 0 0 1 -3.862,-9.321 1.112,1.112 0 0 0 -0.776,-0.806 l -8.623,-2.456 a 0.596,0.596 0 0 1 -0.431,-0.571 v -8.333 c 0,-0.264 0.177,-0.499 0.431,-0.571 l 8.623,-2.456 c 0.385,-0.11 0.681,-0.417 0.776,-0.806 a 33.295,33.295 0 0 1 3.13,-8.041 h 9.893 a 3.35,3.35 0 0 0 3.347,-3.347 v -9.935 a 33.266,33.266 0 0 1 8.127,-3.173 c 0.389,-0.096 0.696,-0.392 0.806,-0.777 l 2.456,-8.623 a 0.596,0.596 0 0 1 0.571,-0.431 h 8.333 c 0.264,0 0.499,0.177 0.571,0.431 l 2.456,8.623 c 0.109,0.385 0.417,0.681 0.805,0.777 a 33.23,33.23 0 0 1 9.321,3.861 c 0.343,0.208 0.77,0.216 1.12,0.021 l 7.835,-4.361 a 0.594,0.594 0 0 1 0.708,0.099 l 5.893,5.892 a 0.597,0.597 0 0 1 0.099,0.709 l -4.362,7.835 c -0.194,0.35 -0.186,0.777 0.021,1.119 a 33.228,33.228 0 0 1 3.862,9.321 c 0.095,0.389 0.392,0.696 0.776,0.806 l 8.624,2.456 a 0.597,0.597 0 0 1 0.431,0.571 v 8.333 a 0.597,0.597 0 0 1 -0.431,0.571 l -8.624,2.456 a 1.112,1.112 0 0 0 -0.776,0.806 33.702,33.702 0 0 1 -0.896,3.015 h -4.547 a 1.114,1.114 0 0 0 0,2.228 h 21.324 c 0.618,0 1.12,0.502 1.12,1.119 v 3.948 h -36.172 v -3.948 a 1.12,1.12 0 0 1 1.119,-1.119 h 6.473 a 1.114,1.114 0 0 0 0,-2.228 h -6.473 a 3.351,3.351 0 0 0 -3.347,3.347 v 17.209 a 33.486,33.486 0 0 1 -3.098,0.925 z m 40.379,4.656 h -33.934 a 1.12,1.12 0 0 1 -1.119,-1.119 v -15.496 h 36.172 v 15.496 a 1.12,1.12 0 0 1 -1.119,1.119 z"
     id="path4545"
     inkscape:connector-curvature="0"
     style="fill:#00345e" />
  <path
     d="m 247.87478,349.42069 a 1.114,1.114 0 0 1 -1.059,-0.768 l -1.528,-4.68 a 1.114,1.114 0 0 1 2.117,-0.692 l 0.727,2.224 0.407,-0.748 a 1.112,1.112 0 0 1 1.956,0 l 0.407,0.748 0.727,-2.224 a 1.1136149,1.1136149 0 1 1 2.117,0.692 l -1.528,4.68 a 1.114,1.114 0 0 1 -2.037,0.187 l -0.664,-1.22 -0.664,1.22 c -0.196,0.36 -0.573,0.581 -0.978,0.581 z m 9.535,0 a 1.114,1.114 0 0 1 -1.059,-0.768 l -1.528,-4.68 a 1.114,1.114 0 0 1 2.117,-0.692 l 0.727,2.224 0.407,-0.748 a 1.112,1.112 0 0 1 1.956,0 l 0.407,0.748 0.727,-2.224 a 1.1136149,1.1136149 0 1 1 2.117,0.692 l -1.528,4.68 a 1.114,1.114 0 0 1 -2.037,0.187 l -0.664,-1.22 -0.664,1.22 c -0.196,0.36 -0.573,0.581 -0.978,0.581 z m 12.819,0 c -0.405,0 -0.782,-0.221 -0.978,-0.581 l -0.664,-1.22 -0.664,1.22 a 1.113,1.113 0 0 1 -2.037,-0.187 l -1.528,-4.68 a 1.114,1.114 0 0 1 2.117,-0.692 l 0.727,2.224 0.407,-0.748 a 1.114,1.114 0 0 1 1.957,0 l 0.407,0.748 0.726,-2.224 a 1.1140902,1.1140902 0 1 1 2.118,0.692 l -1.529,4.68 a 1.114,1.114 0 0 1 -1.059,0.768 z"
     id="path4547"
     inkscape:connector-curvature="0"
     style="fill:#00cebd" />
  <path
     d="m 270.11878,302.58869 c -0.286,0 -0.57,-0.108 -0.788,-0.326 l -2.449,-2.449 a 1.114,1.114 0 0 1 0,-1.575 l 2.449,-2.449 a 1.114,1.114 0 0 1 1.575,0 l 2.449,2.449 c 0.435,0.435 0.435,1.14 0,1.575 l -2.449,2.449 a 1.11,1.11 0 0 1 -0.787,0.326 z m -0.874,-3.563 0.874,0.874 0.874,-0.874 -0.874,-0.874 z"
     id="path4549"
     inkscape:connector-curvature="0"
     style="fill:#46efb2" />
  <path
     d="m 251.03678,278.60969 a 1.113,1.113 0 0 1 -1.113,-1.114 c 0,-0.74 -0.602,-1.342 -1.342,-1.342 a 1.114,1.114 0 0 1 0,-2.228 c 0.74,0 1.342,-0.602 1.342,-1.342 a 1.1135,1.1135 0 1 1 2.227,0 c 0,0.74 0.602,1.342 1.342,1.342 a 1.114,1.114 0 0 1 0,2.228 c -0.74,0 -1.342,0.602 -1.342,1.342 0,0.615 -0.499,1.114 -1.114,1.114 z"
     id="path4551"
     inkscape:connector-curvature="0"
     style="fill:#4d9abf" />
  <path
     d="m 185.53678,336.57869 a 1.114,1.114 0 0 1 -1.114,-1.114 c 0,-0.74 -0.602,-1.342 -1.342,-1.342 a 1.114,1.114 0 0 1 0,-2.228 c 0.74,0 1.342,-0.602 1.342,-1.342 a 1.114,1.114 0 0 1 2.228,0 c 0,0.74 0.602,1.342 1.341,1.342 a 1.114,1.114 0 0 1 0,2.228 c -0.739,0 -1.341,0.602 -1.341,1.342 0,0.615 -0.499,1.114 -1.114,1.114 z"
     id="path4553"
     inkscape:connector-curvature="0"
     style="fill:#00cebd" />
  <path
     d="m 183.87878,348.54369 a 1.114,1.114 0 0 1 -1.114,-1.114 c 0,-0.74 -0.602,-1.342 -1.342,-1.342 a 1.1135,1.1135 0 1 1 0,-2.227 c 0.74,0 1.342,-0.602 1.342,-1.342 a 1.114,1.114 0 0 1 2.228,0 c 0,0.74 0.602,1.342 1.341,1.342 a 1.114,1.114 0 1 1 0,2.227 c -0.739,0 -1.341,0.602 -1.341,1.342 0,0.615 -0.499,1.114 -1.114,1.114 z"
     id="path4555"
     inkscape:connector-curvature="0"
     style="fill:#4d9abf" />
  <path
     d="M506.574 10.163v67.985a3.643 3.643 0 01-3.64 3.64h-60.666a3.643 3.643 0 01-3.64-3.64V10.163a3.643 3.643 0 013.64-3.64h60.666a3.643 3.643 0 013.64 3.64z"
     id="path4557"
     fill="#00345E"
     opacity=".1" />
  <path
     d="M497.514 5.223v64.723a3.643 3.643 0 01-3.639 3.64h-60.667a3.643 3.643 0 01-3.639-3.64V5.223a3.643 3.643 0 013.639-3.64h60.667a3.643 3.643 0 013.639 3.64z"
     id="path4559"
     fill="#fff" />
  <path
     d="M497.514 13.273v-8.05a3.64 3.64 0 00-3.64-3.64h-60.665a3.64 3.64 0 00-3.64 3.64v8.05h67.945z"
     id="path4561"
     fill="#46EFB2" />
  <path
     d="M438.81 8.657a1.211 1.211 0 01-1.211-1.21V7.41a1.211 1.211 0 112.422 0v.035a1.21 1.21 0 01-1.211 1.211zM443.499 8.657a1.212 1.212 0 01-1.211-1.21V7.41a1.212 1.212 0 012.423 0v.035c0 .67-.543 1.211-1.212 1.211zM448.189 8.657a1.211 1.211 0 01-1.211-1.21V7.41a1.211 1.211 0 112.422 0v.035a1.21 1.21 0 01-1.211 1.211z"
     id="path4563"
     fill="#00345E" />
  <path
     d="M493.874.373h-60.665a4.856 4.856 0 00-4.851 4.85V48.25a1.211 1.211 0 102.422 0V14.484h60.105a1.211 1.211 0 100-2.422H430.78V5.224c0-1.34 1.09-2.429 2.429-2.429h60.665a2.432 2.432 0 012.429 2.429v64.72c0 1.34-1.09 2.43-2.429 2.43h-60.665a2.432 2.432 0 01-2.429-2.43V54.92a1.211 1.211 0 10-2.422 0v15.025a4.856 4.856 0 004.851 4.85h60.665a4.856 4.856 0 004.851-4.85V5.224a4.856 4.856 0 00-4.851-4.851z"
     id="path4565"
     fill="#00345E" />
  <path
     d="M452.564 45.246h-2.594v-4.519h-3.843v4.52h-2.609V34.424h2.609v4.296h3.843v-4.296h2.594v10.822zM462.494 36.439h-3.248v8.807h-2.609V36.44h-3.189v-2.014h9.046v2.014zM467.027 34.425l2.416 7.529 2.408-7.53h3.434v10.822h-2.616V42.72l.252-5.173-2.616 7.7h-1.724l-2.624-7.707.253 5.18v2.527h-2.609V34.425h3.426zM479.559 43.24h4.541v2.006h-7.15V34.425h2.609v8.815z"
     id="path4567"
     fill="#00345E" />
  <path
     d="M713.308 10.163v67.985a3.643 3.643 0 01-3.64 3.64h-60.666a3.643 3.643 0 01-3.639-3.64V10.163a3.643 3.643 0 013.639-3.64h60.667a3.643 3.643 0 013.639 3.64z"
     id="path4569"
     fill="#00345E"
     opacity=".1" />
  <path
     d="M704.249 5.223v64.723a3.643 3.643 0 01-3.64 3.64h-60.666a3.643 3.643 0 01-3.64-3.64V5.223a3.643 3.643 0 013.64-3.64h60.666a3.643 3.643 0 013.64 3.64z"
     id="path4571"
     fill="#fff" />
  <path
     d="M704.248 13.273v-8.05a3.64 3.64 0 00-3.64-3.64h-60.665a3.64 3.64 0 00-3.64 3.64v8.05h67.945z"
     id="path4573"
     fill="#4D9ABF" />
  <path
     d="M645.545 8.657a1.212 1.212 0 01-1.212-1.21V7.41a1.212 1.212 0 012.423 0v.035a1.21 1.21 0 01-1.211 1.211zM650.234 8.657a1.211 1.211 0 01-1.211-1.21V7.41a1.211 1.211 0 112.422 0v.035a1.21 1.21 0 01-1.211 1.211zM654.923 8.657a1.212 1.212 0 01-1.211-1.21V7.41a1.212 1.212 0 012.422 0v.035a1.21 1.21 0 01-1.211 1.211z"
     id="path4575"
     fill="#00345E" />
  <path
     d="M700.608.373h-60.665a4.857 4.857 0 00-4.851 4.85V48.25a1.212 1.212 0 002.422 0V14.484h60.105a1.211 1.211 0 100-2.422h-60.104V5.224a2.431 2.431 0 012.429-2.429h60.665a2.431 2.431 0 012.428 2.429v64.72a2.431 2.431 0 01-2.428 2.43h-60.666a2.432 2.432 0 01-2.429-2.43V54.92a1.211 1.211 0 10-2.422 0v15.025a4.856 4.856 0 004.851 4.85h60.665a4.856 4.856 0 004.851-4.85V5.224a4.856 4.856 0 00-4.851-4.851z"
     id="path4577"
     fill="#00345E" />
  <path
     d="M657.858 41.575v3.671h-2.609V34.425h4.319c.827 0 1.558.153 2.192.46a3.388 3.388 0 011.479 1.301c.352.56.528 1.197.528 1.91 0 1.056-.379 1.9-1.137 2.535-.753.63-1.789.944-3.107.944h-1.665zm0-2.014h1.71c.505 0 .889-.127 1.152-.38.267-.252.401-.609.401-1.07 0-.505-.136-.909-.409-1.211-.272-.303-.644-.456-1.115-.461h-1.739v3.122zM674.202 45.246h-2.594l-3.835-6.733v6.733h-2.609V34.425h2.609l3.828 6.734v-6.734h2.601v10.822zM684.712 43.909c-.402.446-.989.805-1.762 1.077-.773.273-1.62.41-2.542.41-1.417 0-2.549-.434-3.396-1.302-.848-.867-1.301-2.073-1.36-3.62l-.008-.936c0-1.065.188-1.994.565-2.787.377-.798.914-1.41 1.613-1.836.704-.43 1.516-.646 2.438-.646 1.348 0 2.393.31 3.136.929.748.614 1.185 1.533 1.308 2.757h-2.512c-.089-.604-.282-1.035-.58-1.293-.297-.258-.718-.387-1.263-.387-.654 0-1.16.278-1.516.833-.357.555-.538 1.348-.543 2.378v.654c0 1.08.183 1.893.55 2.438.372.54.954.81 1.747.81.679 0 1.184-.15 1.516-.453v-1.68h-1.813v-1.791h4.422v4.445z"
     id="path4579"
     fill="#00345E" />
  <path
     d="M609.941 10.163v67.985a3.643 3.643 0 01-3.64 3.64h-60.666a3.643 3.643 0 01-3.64-3.64V10.163a3.643 3.643 0 013.64-3.64h60.666a3.643 3.643 0 013.64 3.64z"
     id="path4581"
     fill="#00345E"
     opacity=".1" />
  <path
     d="M600.881 5.223v64.723a3.643 3.643 0 01-3.639 3.64h-60.667a3.643 3.643 0 01-3.639-3.64V5.223a3.643 3.643 0 013.639-3.64h60.667a3.643 3.643 0 013.639 3.64z"
     id="path4583"
     fill="#fff" />
  <path
     d="M600.881 13.273v-8.05a3.64 3.64 0 00-3.64-3.64h-60.665a3.64 3.64 0 00-3.64 3.64v8.05h67.945z"
     id="path4585"
     fill="#00CEBD" />
  <path
     d="M542.177 8.657a1.211 1.211 0 01-1.211-1.21V7.41a1.211 1.211 0 112.422 0v.035a1.21 1.21 0 01-1.211 1.211zM546.867 8.657a1.211 1.211 0 01-1.211-1.21V7.41a1.211 1.211 0 112.422 0v.035c0 .67-.543 1.211-1.211 1.211zM551.556 8.657a1.211 1.211 0 01-1.211-1.21V7.41a1.211 1.211 0 112.422 0v.035a1.21 1.21 0 01-1.211 1.211z"
     id="path4587"
     fill="#00345E" />
  <path
     d="M597.241.373h-60.665a4.856 4.856 0 00-4.851 4.85V48.25a1.211 1.211 0 102.422 0V14.484h60.105a1.211 1.211 0 100-2.422h-60.105V5.224c0-1.34 1.09-2.429 2.429-2.429h60.665c1.34 0 2.429 1.09 2.429 2.429v64.72a2.431 2.431 0 01-2.429 2.43h-60.665a2.432 2.432 0 01-2.429-2.43V54.92a1.211 1.211 0 10-2.422 0v15.025a4.856 4.856 0 004.851 4.85h60.665a4.856 4.856 0 004.851-4.85V5.224a4.856 4.856 0 00-4.851-4.851z"
     id="path4589"
     fill="#00345E" />
  <path
     d="M561.67 34.425h2.602v7.425c0 .688-.161 1.303-.484 1.843-.317.54-.763.959-1.337 1.256a4.07 4.07 0 01-1.911.446c-1.179 0-2.096-.297-2.75-.892-.654-.594-.981-1.437-.981-2.527h2.617c0 .496.084.855.252 1.078.174.223.461.334.862.334.362 0 .64-.133.833-.401.198-.273.297-.652.297-1.137v-7.425zM571.503 42.37c0-.381-.136-.679-.408-.892-.268-.213-.741-.433-1.42-.661a13.63 13.63 0 01-1.665-.662c-1.402-.689-2.103-1.635-2.103-2.839 0-.6.173-1.127.52-1.583.352-.461.847-.818 1.486-1.07.64-.258 1.358-.387 2.156-.387.778 0 1.474.139 2.088.416.62.278 1.1.674 1.442 1.19.342.51.513 1.095.513 1.754h-2.601c0-.441-.136-.783-.409-1.026-.268-.243-.632-.364-1.093-.364-.465 0-.834.104-1.107.312-.268.203-.401.463-.401.78 0 .278.148.53.446.758.297.223.82.456 1.568.699.748.238 1.362.495 1.843.773 1.17.674 1.754 1.603 1.754 2.787 0 .947-.357 1.69-1.07 2.23-.714.54-1.692.81-2.936.81-.877 0-1.672-.156-2.386-.468-.708-.317-1.243-.748-1.605-1.293-.357-.55-.535-1.182-.535-1.896h2.616c0 .58.149 1.009.446 1.286.302.273.79.409 1.464.409.431 0 .771-.092 1.018-.275.253-.188.379-.451.379-.788z"
     id="path4591"
     fill="#00345E" />
  <path
     d="M155.157 128.361a1.501 1.501 0 012.121 0l6.782 6.783a1.5 1.5 0 010 2.121l-6.782 6.783a1.501 1.501 0 01-2.121-2.122l5.721-5.721-5.721-5.722a1.5 1.5 0 010-2.122z"
     id="path4593"
     style="fill:#faa920;fill-opacity:1"
     clip-rule="evenodd"
     fill-rule="evenodd"
     fill="#21BBB0" />
  <path
     d="M886.688 191.301a1.5 1.5 0 010-2.121l6.782-6.783a1.502 1.502 0 012.122 0l6.782 6.783a1.5 1.5 0 11-2.121 2.121l-5.722-5.722-5.722 5.722a1.5 1.5 0 01-2.121 0z"
     id="path4595"
     style="fill:#faa926;fill-opacity:1"
     clip-rule="evenodd"
     fill-rule="evenodd"
     fill="#219FBB" />
  <mask
     id="a"
     maskUnits="userSpaceOnUse"
     x="797"
     y="287"
     width="192"
     height="126">
    <path
       d="M797.79 287.075h190.355v125.208H797.79V287.075z"
       id="path4597"
       fill="#C4C4C4" />
  </mask>
  <g
     mask="url(#a)"
     id="g4638">
    <path
       d="M 921.517,344.118 H 870.09 a 3.837,3.837 0 0 1 -3.838,-3.837 v -41.838 a 3.838,3.838 0 0 1 3.838,-3.838 h 51.427 a 3.838,3.838 0 0 1 3.838,3.838 v 41.838 a 3.837,3.837 0 0 1 -3.838,3.837 z m -5.756,59.376 h -39.916 a 3.838,3.838 0 0 1 -3.838,-3.838 v -24.572 a 3.838,3.838 0 0 1 3.838,-3.838 h 39.916 a 3.838,3.838 0 0 1 3.838,3.838 v 24.572 a 3.838,3.838 0 0 1 -3.838,3.838 z"
       id="path4600"
       inkscape:connector-curvature="0"
       style="opacity:0.1;fill:#00345e" />
    <path
       d="m 977.918,371.246 h -18.044 v -0.704 c 0,-5.287 -4.301,-9.588 -9.588,-9.588 H 841.32 c -5.287,0 -9.588,4.301 -9.588,9.588 v 0.704 h -18.044 a 3.837,3.837 0 0 0 -3.837,3.838 v 24.572 a 3.837,3.837 0 0 0 3.837,3.838 h 39.917 a 3.838,3.838 0 0 0 3.838,-3.838 v -24.572 a 3.838,3.838 0 0 0 -3.838,-3.838 h -18.044 v -0.704 a 5.766,5.766 0 0 1 5.759,-5.76 h 108.966 a 5.766,5.766 0 0 1 5.759,5.76 v 0.704 h -18.044 a 3.837,3.837 0 0 0 -3.837,3.838 v 24.572 a 3.837,3.837 0 0 0 3.837,3.838 h 39.917 a 3.838,3.838 0 0 0 3.838,-3.838 v -24.572 a 3.838,3.838 0 0 0 -3.838,-3.838 z"
       id="path4602"
       inkscape:connector-curvature="0"
       style="opacity:0.1;fill:#00345e" />
    <path
       d="M 921.516,351.01 H 870.09 a 3.838,3.838 0 0 1 -3.838,-3.838 v -41.838 a 3.838,3.838 0 0 1 3.838,-3.838 h 51.426 a 3.838,3.838 0 0 1 3.838,3.838 v 41.838 a 3.838,3.838 0 0 1 -3.838,3.838 z"
       id="path4604"
       inkscape:connector-curvature="0"
       style="fill:#f5f5f5" />
    <path
       d="m 921.516,301.496 h -13.079 v 49.514 h 13.079 a 3.837,3.837 0 0 0 3.838,-3.837 v -41.839 a 3.838,3.838 0 0 0 -3.838,-3.838 z"
       id="path4606"
       inkscape:connector-curvature="0"
       style="fill:#e6e6e6" />
    <path
       d="m 925.354,314.033 v -8.699 a 3.838,3.838 0 0 0 -3.838,-3.838 H 870.09 a 3.838,3.838 0 0 0 -3.838,3.838 v 8.699 z"
       id="path4608"
       inkscape:connector-curvature="0"
       style="fill:#00cebd" />
    <path
       d="m 900.726,338.604 h -22.48 a 1.919,1.919 0 1 1 0,-3.837 h 22.48 a 1.9185,1.9185 0 1 1 0,3.837 z"
       id="path4610"
       inkscape:connector-curvature="0"
       style="fill:#e6e6e6" />
    <path
       d="m 890.364,330.639 h -12.118 a 1.919,1.919 0 1 1 0,-3.837 h 12.118 a 1.9185,1.9185 0 1 1 0,3.837 z"
       id="path4612"
       inkscape:connector-curvature="0"
       style="fill:#46efb2" />
    <path
       d="m 853.605,410.386 h -39.917 a 3.837,3.837 0 0 1 -3.837,-3.838 v -24.572 a 3.837,3.837 0 0 1 3.837,-3.838 h 39.917 a 3.838,3.838 0 0 1 3.838,3.838 v 24.572 a 3.838,3.838 0 0 1 -3.838,3.838 z"
       id="path4614"
       inkscape:connector-curvature="0"
       style="fill:#f5f5f5" />
    <path
       d="m 853.605,410.386 h -39.917 a 3.837,3.837 0 0 1 -3.837,-3.838 v -24.572 a 3.837,3.837 0 0 1 3.837,-3.838 h 39.917 a 3.838,3.838 0 0 1 3.838,3.838 v 24.572 a 3.838,3.838 0 0 1 -3.838,3.838 z"
       id="path4616"
       inkscape:connector-curvature="0"
       style="fill:#f5f5f5" />
    <path
       d="m 857.443,390.675 v -8.699 a 3.838,3.838 0 0 0 -3.838,-3.838 h -39.917 a 3.837,3.837 0 0 0 -3.837,3.838 v 8.699 z"
       id="path4618"
       inkscape:connector-curvature="0"
       style="fill:#4d9abf" />
    <path
       d="m 845.448,401.739 h -23.604 a 1.919,1.919 0 0 1 0,-3.838 h 23.604 a 1.919,1.919 0 0 1 0,3.838 z"
       id="path4620"
       inkscape:connector-curvature="0"
       style="fill:#006686" />
    <path
       d="m 915.761,410.386 h -39.916 a 3.838,3.838 0 0 1 -3.838,-3.838 v -24.572 a 3.838,3.838 0 0 1 3.838,-3.838 h 39.916 a 3.838,3.838 0 0 1 3.838,3.838 v 24.572 a 3.838,3.838 0 0 1 -3.838,3.838 z"
       id="path4622"
       inkscape:connector-curvature="0"
       style="fill:#f5f5f5" />
    <path
       d="m 919.599,390.675 v -8.699 a 3.838,3.838 0 0 0 -3.838,-3.838 h -39.916 a 3.838,3.838 0 0 0 -3.838,3.838 v 8.699 z"
       id="path4624"
       inkscape:connector-curvature="0"
       style="fill:#4d9abf" />
    <path
       d="m 907.605,401.739 h -23.604 a 1.919,1.919 0 0 1 0,-3.838 h 23.604 a 1.92,1.92 0 0 1 0,3.838 z"
       id="path4626"
       inkscape:connector-curvature="0"
       style="fill:#006686" />
    <path
       d="m 977.918,410.386 h -39.917 a 3.837,3.837 0 0 1 -3.837,-3.838 v -24.572 a 3.837,3.837 0 0 1 3.837,-3.838 h 39.917 a 3.838,3.838 0 0 1 3.838,3.838 v 24.572 a 3.838,3.838 0 0 1 -3.838,3.838 z"
       id="path4628"
       inkscape:connector-curvature="0"
       style="fill:#f5f5f5" />
    <path
       d="m 981.756,390.675 v -8.699 a 3.838,3.838 0 0 0 -3.838,-3.838 h -39.917 a 3.837,3.837 0 0 0 -3.837,3.838 v 8.699 z"
       id="path4630"
       inkscape:connector-curvature="0"
       style="fill:#4d9abf" />
    <path
       d="m 969.762,401.739 h -23.604 a 1.92,1.92 0 0 1 0,-3.838 h 23.604 a 1.919,1.919 0 0 1 0,3.838 z"
       id="path4632"
       inkscape:connector-curvature="0"
       style="fill:#006686" />
    <path
       d="m 977.918,376.223 h -18.046 c -0.033,-5.258 -4.32,-9.526 -9.586,-9.526 h -52.569 v -13.772 h 23.799 a 5.759,5.759 0 0 0 5.752,-5.752 V 324.6 a 1.9145,1.9145 0 0 0 -3.829,0 v 22.573 c 0,1.06 -0.863,1.923 -1.923,1.923 h -51.427 a 1.926,1.926 0 0 1 -1.923,-1.923 v -31.225 h 57.188 a 1.914,1.914 0 0 0 1.914,-1.915 v -8.699 a 5.759,5.759 0 0 0 -5.751,-5.752 h -51.428 a 5.76,5.76 0 0 0 -5.752,5.752 v 41.838 a 5.759,5.759 0 0 0 5.752,5.752 h 23.8 v 13.772 H 841.32 c -5.266,0 -9.553,4.268 -9.586,9.527 h -18.046 a 5.759,5.759 0 0 0 -5.752,5.752 v 24.573 a 5.759,5.759 0 0 0 5.752,5.752 h 39.917 a 5.76,5.76 0 0 0 5.752,-5.752 v -24.573 a 5.76,5.76 0 0 0 -5.752,-5.752 h -18.041 a 5.764,5.764 0 0 1 5.756,-5.698 h 52.569 v 5.698 h -18.044 a 5.759,5.759 0 0 0 -5.752,5.752 v 24.573 a 5.759,5.759 0 0 0 5.752,5.752 h 18.044 v 6.907 h -23.793 c -5.266,0 -9.553,4.268 -9.586,9.527 h -18.046 a 5.758,5.758 0 0 0 -5.752,5.752 v 24.572 a 5.759,5.759 0 0 0 5.752,5.753 h 39.917 a 5.76,5.76 0 0 0 5.752,-5.753 v -24.572 a 5.759,5.759 0 0 0 -5.752,-5.752 H 864.34 a 5.763,5.763 0 0 1 5.756,-5.698 h 51.413 a 5.764,5.764 0 0 1 5.757,5.698 h -18.041 a 5.758,5.758 0 0 0 -5.752,5.752 v 24.572 a 5.759,5.759 0 0 0 5.752,5.753 h 39.916 a 5.759,5.759 0 0 0 5.752,-5.753 v -24.572 a 5.758,5.758 0 0 0 -5.752,-5.752 h -18.045 c -0.033,-5.259 -4.32,-9.527 -9.587,-9.527 H 897.717 V 412.3 h 18.044 a 5.759,5.759 0 0 0 5.752,-5.752 v -24.573 a 5.759,5.759 0 0 0 -5.752,-5.752 h -18.044 v -5.698 h 52.569 a 5.764,5.764 0 0 1 5.756,5.698 h -18.041 a 5.76,5.76 0 0 0 -5.752,5.752 v 24.573 a 5.76,5.76 0 0 0 5.752,5.752 h 39.917 a 5.76,5.76 0 0 0 5.752,-5.752 v -24.573 a 5.76,5.76 0 0 0 -5.752,-5.752 z M 868.166,305.334 c 0,-1.06 0.863,-1.923 1.923,-1.923 h 51.427 c 1.061,0 1.923,0.863 1.923,1.923 v 6.785 h -55.273 z m -14.561,103.138 h -39.917 a 1.926,1.926 0 0 1 -1.923,-1.924 v -13.959 h 43.763 v 13.959 a 1.926,1.926 0 0 1 -1.923,1.924 z m 1.923,-26.496 v 6.784 h -43.763 v -6.784 c 0,-1.061 0.863,-1.924 1.923,-1.924 h 39.917 c 1.06,0 1.923,0.863 1.923,1.924 z m 28.776,52.51 v 24.573 c 0,1.06 -0.863,1.923 -1.923,1.923 h -39.917 a 1.926,1.926 0 0 1 -1.923,-1.923 V 445.1 h 35.111 a 1.915,1.915 0 0 0 0,-3.829 h -35.111 v -6.785 c 0,-1.061 0.863,-1.923 1.923,-1.923 h 39.917 c 1.06,0 1.923,0.863 1.923,1.923 z m 64.837,26.496 h -39.916 a 1.925,1.925 0 0 1 -1.923,-1.923 V 445.1 h 43.763 v 13.959 c 0,1.06 -0.863,1.923 -1.924,1.923 z m 1.924,-26.496 v 6.785 h -43.764 v -6.785 c 0,-1.061 0.863,-1.923 1.924,-1.923 h 39.916 c 1.061,0 1.924,0.863 1.924,1.923 z m -35.304,-26.014 h -39.916 a 1.926,1.926 0 0 1 -1.924,-1.924 v -13.959 h 43.764 v 13.959 a 1.926,1.926 0 0 1 -1.924,1.924 z m 1.924,-26.496 v 6.784 h -43.764 v -6.784 c 0,-1.061 0.863,-1.924 1.924,-1.924 h 39.916 c 1.061,0 1.924,0.863 1.924,1.924 z m 20.316,-1.924 h 39.917 c 1.061,0 1.923,0.863 1.923,1.924 v 6.784 h -43.763 v -6.784 c 0,-1.061 0.863,-1.924 1.923,-1.924 z m 39.917,28.42 h -39.917 a 1.926,1.926 0 0 1 -1.923,-1.924 v -13.959 h 43.763 v 13.959 a 1.926,1.926 0 0 1 -1.923,1.924 z"
       id="path4634"
       inkscape:connector-curvature="0"
       style="fill:#faa926;fill-opacity:1" />
    <path
       d="m 908.437,332.197 a 5.395,5.395 0 1 0 10e-4,-10.79 5.395,5.395 0 0 0 -10e-4,10.79 z"
       id="path4636"
       inkscape:connector-curvature="0"
       style="fill:#4d9abf" />
  </g>
  <text
     xml:space="preserve"
     style="font-style:normal;font-weight:normal;font-size:40px;line-height:1.25;font-family:sans-serif;letter-spacing:0px;word-spacing:0px;fill:#999999;fill-opacity:1;stroke:none;"
     x="787.12958"
     y="436.41232"
     id="text4650"><tspan
       sodipodi:role="line"
       x="787.12958"
       y="436.41232"
       style="font-style:italic;font-variant:normal;font-weight:normal;font-stretch:normal;font-size:20px;line-height:0;font-family:Roboto;-inkscape-font-specification:'Roboto Italic';fill:#999999;"
       id="tspan4652">WhatsApp, Facebook, </tspan></text>
  <text
     xml:space="preserve"
     style="font-style:normal;font-weight:normal;font-size:40px;line-height:1.25;font-family:sans-serif;letter-spacing:0px;word-spacing:0px;fill:#000000;fill-opacity:1;stroke:none"
     x="835.25336"
     y="457.57385"
     id="text4658"><tspan
       sodipodi:role="line"
       id="tspan4656"
       x="835.25336"
       y="457.57385"
       style="font-style:italic;font-variant:normal;font-weight:normal;font-stretch:normal;font-size:20px;font-family:Roboto;-inkscape-font-specification:'Roboto Italic';fill:#99999f;fill-opacity:0.94117647">Twitter, Etc.</tspan></text>
  <text
     xml:space="preserve"
     style="font-style:normal;font-weight:normal;font-size:40px;line-height:1.25;font-family:sans-serif;letter-spacing:0px;word-spacing:0px;fill:#000000;fill-opacity:1;stroke:none"
     x="371.80997"
     y="144.69971"
     id="text4662"><tspan
       sodipodi:role="line"
       id="tspan4660"
       x="371.80997"
       y="144.69971"
       style="font-style:normal;font-variant:normal;font-weight:bold;font-stretch:normal;font-size:18.66666603px;font-family:sans-serif;-inkscape-font-specification:'sans-serif Bold';fill:#ffffff">Client's web application and mobile app </tspan></text>
  <text
     xml:space="preserve"
     style="font-style:normal;font-weight:normal;font-size:40px;line-height:1.25;font-family:sans-serif;letter-spacing:0px;word-spacing:0px;fill:#999999;fill-opacity:1;stroke:none"
     x="216.10674"
     y="455.84225"
     id="text4650-8"><tspan
       sodipodi:role="line"
       x="216.10674"
       y="455.84225"
       style="font-style:italic;font-variant:normal;font-weight:normal;font-stretch:normal;font-size:20px;line-height:0;font-family:Roboto;-inkscape-font-specification:'Roboto Italic';fill:#999999"
       id="tspan4652-0">Customers/Visitors</tspan></text>
  <text
     xml:space="preserve"
     style="font-style:normal;font-weight:normal;font-size:40px;line-height:1.25;font-family:sans-serif;letter-spacing:0px;word-spacing:0px;fill:#999999;fill-opacity:1;stroke:none"
     x="7.1323543"
     y="271.35818"
     id="text4650-8-6"><tspan
       sodipodi:role="line"
       x="7.1323543"
       y="271.35818"
       style="font-style:italic;font-variant:normal;font-weight:normal;font-stretch:normal;font-size:20px;line-height:0;font-family:Roboto;-inkscape-font-specification:'Roboto Italic';fill:#ffffff"
       id="tspan4652-0-5">Requests</tspan></text>
  <text
     xml:space="preserve"
     style="font-style:normal;font-weight:normal;font-size:40px;line-height:1.25;font-family:sans-serif;letter-spacing:0px;word-spacing:0px;fill:#999999;fill-opacity:1;stroke:none"
     x="431.35172"
     y="214.0045"
     id="text4650-8-9"><tspan
       sodipodi:role="line"
       x="431.35172"
       y="214.0045"
       style="font-style:italic;font-variant:normal;font-weight:normal;font-stretch:normal;font-size:20px;line-height:0;font-family:Roboto;-inkscape-font-specification:'Roboto Italic';fill:#999999"
       id="tspan4652-0-0">HolaCHATS LiveChat System</tspan></text>
  <text
     xml:space="preserve"
     style="font-style:normal;font-weight:normal;font-size:40px;line-height:1.25;font-family:sans-serif;letter-spacing:0px;word-spacing:0px;fill:#999999;fill-opacity:1;stroke:none"
     x="185.1265"
     y="401.88718"
     id="text4650-8-8"><tspan
       sodipodi:role="line"
       x="185.1265"
       y="401.88718"
       style="font-style:italic;font-variant:normal;font-weight:normal;font-stretch:normal;font-size:20px;line-height:0;font-family:Roboto;-inkscape-font-specification:'Roboto Italic';fill:#ffffff"
       id="tspan4652-0-6">Customer's need/inquiries</tspan></text>
  <path
     inkscape:connector-curvature="0"
     d="m 843.69268,265.34018 a 4.1993195,1.5 0 0 1 -4.19931,1.5 H 104.86441 a 4.1993195,1.5 0 0 1 0,-3 h 734.62896 a 4.1993195,1.5 0 0 1 4.19931,1.5 z"
     id="path4507-9"
     style="clip-rule:evenodd;fill:#faa926;fill-opacity:1;fill-rule:evenodd;stroke-width:1.67318439" />
  <path
     inkscape:connector-curvature="0"
     d="m 835.17689,257.51416 a 1.501,1.501 0 0 1 2.121,0 l 6.782,6.783 a 1.5,1.5 0 0 1 0,2.121 l -6.782,6.783 a 1.501,1.501 0 0 1 -2.121,-2.122 l 5.721,-5.721 -5.721,-5.722 a 1.5,1.5 0 0 1 0,-2.122 z"
     id="path4593-9"
     style="clip-rule:evenodd;fill:#faa920;fill-opacity:1;fill-rule:evenodd" />
  <path
     inkscape:connector-curvature="0"
     d="m 116.19201,272.17736 a 1.501,1.501 0 0 1 -2.121,0 l -6.782,-6.783 a 1.5,1.5 0 0 1 0,-2.121 l 6.782,-6.783 a 1.501,1.501 0 0 1 2.121,2.122 l -5.721,5.721 5.721,5.722 a 1.5,1.5 0 0 1 0,2.122 z"
     id="path4593-9-7"
     style="clip-rule:evenodd;fill:#faa920;fill-opacity:1;fill-rule:evenodd" />
  <path
     inkscape:connector-curvature="0"
     style="opacity:0.1;fill:#00345e"
     d="M 810.41591,9.9523036 V 77.937307 a 3.643,3.643 0 0 1 -3.64,3.64 h -60.666 a 3.643,3.643 0 0 1 -3.64,-3.64 V 9.9523036 a 3.643,3.643 0 0 1 3.64,-3.64 h 60.666 a 3.643,3.643 0 0 1 3.64,3.64 z"
     id="path4581-7" />
  <path
     inkscape:connector-curvature="0"
     style="fill:#ffffff"
     d="M 801.35591,5.0123036 V 69.735307 a 3.643,3.643 0 0 1 -3.639,3.64 h -60.667 a 3.643,3.643 0 0 1 -3.639,-3.64 V 5.0123036 a 3.643,3.643 0 0 1 3.639,-3.64 h 60.667 a 3.643,3.643 0 0 1 3.639,3.64 z"
     id="path4583-8" />
  <path
     inkscape:connector-curvature="0"
     style="fill:#00cebd"
     d="M 801.35591,13.062304 V 5.0123036 a 3.64,3.64 0 0 0 -3.64,-3.64 h -60.665 a 3.64,3.64 0 0 0 -3.64,3.64 v 8.0500004 z"
     id="path4585-5" />
  <path
     inkscape:connector-curvature="0"
     style="fill:#00345e"
     d="m 742.65191,8.4463036 a 1.211,1.211 0 0 1 -1.211,-1.21 v -0.037 a 1.211,1.211 0 1 1 2.422,0 v 0.035 a 1.21,1.21 0 0 1 -1.211,1.211 z m 4.69,0 a 1.211,1.211 0 0 1 -1.211,-1.21 v -0.037 a 1.211,1.211 0 1 1 2.422,0 v 0.035 c 0,0.67 -0.543,1.211 -1.211,1.211 z m 4.689,0 a 1.211,1.211 0 0 1 -1.211,-1.21 v -0.037 a 1.211,1.211 0 1 1 2.422,0 v 0.035 a 1.21,1.21 0 0 1 -1.211,1.211 z"
     id="path4587-5" />
  <path
     inkscape:connector-curvature="0"
     style="fill:#00345e"
     d="m 797.71591,0.16230359 h -60.665 a 4.856,4.856 0 0 0 -4.851,4.85000001 V 48.039307 a 1.211,1.211 0 1 0 2.422,0 V 14.273304 h 60.105 a 1.211,1.211 0 1 0 0,-2.422 h -60.105 V 5.0133036 c 0,-1.34 1.09,-2.429 2.429,-2.429 h 60.665 c 1.34,0 2.429,1.09 2.429,2.429 V 69.733307 a 2.431,2.431 0 0 1 -2.429,2.43 h -60.665 a 2.432,2.432 0 0 1 -2.429,-2.43 v -15.024 a 1.211,1.211 0 1 0 -2.422,0 v 15.025 a 4.856,4.856 0 0 0 4.851,4.85 h 60.665 a 4.856,4.856 0 0 0 4.851,-4.85 V 5.0133036 a 4.856,4.856 0 0 0 -4.851,-4.85100001 z"
     id="path4589-0" />
  <text
     xml:space="preserve"
     style="font-style:normal;font-weight:normal;font-size:40px;line-height:1.25;font-family:sans-serif;letter-spacing:0px;word-spacing:0px;fill:#00345e;fill-opacity:1;stroke:none"
     x="720.09772"
     y="46.843212"
     id="text4650-8-82"><tspan
       sodipodi:role="line"
       x="720.09772"
       y="46.843212"
       style="font-style:normal;font-variant:normal;font-weight:normal;font-stretch:condensed;font-size:20px;line-height:0;font-family:Roboto;-inkscape-font-specification:'Roboto Condensed';fill:#00345e;fill-opacity:1"
       id="tspan4652-0-04">Frameworks</tspan></text>
</svg>
