<svg width="115" height="115" viewBox="0 0 115 115" fill="none" xmlns="http://www.w3.org/2000/svg"><path opacity=".1" d="M95.498 11.134H46.513a3.34 3.34 0 00-3.34 3.34v18.32H25.508c-.926 0-1.676.75-1.676 1.676v15.72c0 .927.75 1.677 1.676 1.677h17.667V79.16H20.02c-1.23 0-2.229.997-2.229 2.228v15.288c0 1.23.998 2.228 2.229 2.228h54.987c1.23 0 2.228-.997 2.228-2.228v-8.897h18.261a3.34 3.34 0 003.34-3.34V14.474a3.341 3.341 0 00-3.34-3.34z" fill="#00345E"/><path d="M98.837 19.152v69.964a3.34 3.34 0 01-3.34 3.34H46.513a3.34 3.34 0 01-3.34-3.34V19.152a3.34 3.34 0 013.34-3.34h48.984a3.34 3.34 0 013.34 3.34z" fill="#fff"/><path d="M43.174 83.837v5.279a3.341 3.341 0 003.34 3.34h48.983a3.34 3.34 0 003.34-3.34v-5.28H43.174z" fill="#faa926"/><path d="M55.327 15.812v76.644h-8.814a3.341 3.341 0 01-3.34-3.34V19.151a3.343 3.343 0 013.34-3.34h8.814z" fill="#E6E9ED"/><path d="M51.333 42.304v15.721c0 .925-.748 1.676-1.675 1.676h-6.485V40.626h6.484c.928 0 1.676.751 1.676 1.678z" fill="#faa926"/><path d="M98.837 26.538v-7.386a3.34 3.34 0 00-3.34-3.34H46.513a3.34 3.34 0 00-3.34 3.34v7.386h55.664z" fill="#faa926"/><path d="M72.11 51.616h-3.506c-.583 0-1.103.426-1.159 1.006a1.116 1.116 0 001.111 1.225h3.553a1.116 1.116 0 100-2.231z" fill="#faa926"/><path d="M85.574 51.616h-8.336a1.116 1.116 0 100 2.231h8.384c.652 0 1.174-.56 1.11-1.226-.055-.58-.575-1.005-1.158-1.005z" fill="#faa926"/><path d="M80.132 56.287H68.604c-.583 0-1.103.426-1.158 1.006a1.116 1.116 0 001.11 1.226h11.576a1.116 1.116 0 100-2.232z" fill="#faa926"/><path d="M92.259 56.287h-7a1.116 1.116 0 100 2.232h7.048c.652 0 1.174-.56 1.11-1.226-.055-.58-.575-1.006-1.158-1.006z" fill="#faa926"/><path d="M76.789 60.959h-8.185c-.583 0-1.103.426-1.159 1.006a1.116 1.116 0 001.111 1.225h8.233a1.116 1.116 0 100-2.231z" fill="#faa926"/><path d="M85.574 60.959h-3.657a1.116 1.116 0 100 2.231h3.705c.653 0 1.174-.56 1.11-1.225-.055-.58-.575-1.006-1.158-1.006zM92.26 65.63H78.574a1.116 1.116 0 100 2.232h13.732c.653 0 1.174-.56 1.11-1.226-.055-.58-.575-1.006-1.158-1.006z" fill="#faa926"/><path d="M73.446 65.63h-4.842c-.583 0-1.103.426-1.159 1.006a1.116 1.116 0 001.111 1.226h4.89a1.116 1.116 0 100-2.232z" fill="#faa926"/><path d="M65.647 43.85H61.92c-.583 0-1.103.426-1.158 1.006a1.116 1.116 0 001.11 1.225h3.776a1.116 1.116 0 100-2.231zM85.574 43.85H71.073a1.116 1.116 0 100 2.231h14.549c.652 0 1.174-.56 1.11-1.225-.055-.58-.575-1.006-1.158-1.006zM65.647 74.058H61.92c-.583 0-1.103.426-1.158 1.006a1.116 1.116 0 001.11 1.226h3.776a1.116 1.116 0 100-2.232zM85.574 74.058H71.073a1.116 1.116 0 000 2.232h14.549c.652 0 1.174-.56 1.11-1.226-.055-.58-.575-1.006-1.158-1.006z" fill="#faa926"/><path d="M49.658 56.545H25.507c-.926 0-1.676-.75-1.676-1.676V39.148c0-.926.75-1.677 1.676-1.677h24.15c.927 0 1.677.751 1.677 1.677v15.72c0 .927-.75 1.677-1.676 1.677z" fill="#faa926"/><path d="M32.371 50.805c-.285 0-.57-.109-.788-.326l-2.682-2.683a1.114 1.114 0 010-1.576l2.682-2.682a1.115 1.115 0 011.576 1.576l-1.894 1.894 1.894 1.894a1.114 1.114 0 01-.788 1.903zM42.793 43.212c.285 0 .57.108.788.326l2.683 2.682c.435.436.435 1.141 0 1.577l-2.683 2.682a1.115 1.115 0 01-1.576-1.576l1.894-1.895-1.894-1.894a1.114 1.114 0 01.788-1.902zM36.067 50.805a1.114 1.114 0 01-.97-1.663l3.03-5.364a1.114 1.114 0 011.94 1.096l-3.029 5.365a1.114 1.114 0 01-.971.566zM75.008 103.581H20.02a2.228 2.228 0 01-2.229-2.228V86.065c0-1.23.998-2.228 2.229-2.228h54.987c1.23 0 2.228.997 2.228 2.228v15.288c0 1.23-.997 2.228-2.228 2.228z" fill="#F5F5F5"/><path d="M51.652 20.045c-.615 0-1.113.499-1.113 1.114v.033a1.114 1.114 0 102.227 0v-.033c0-.615-.498-1.114-1.114-1.114zM55.955 20.045c-.615 0-1.114.499-1.114 1.114v.033a1.114 1.114 0 002.228 0v-.033c0-.615-.499-1.114-1.114-1.114zM60.258 20.045c-.615 0-1.114.499-1.114 1.114v.033a1.114 1.114 0 102.228 0v-.033c0-.615-.499-1.114-1.114-1.114z" fill="#00345E"/><path d="M95.498 14.698H46.514a4.459 4.459 0 00-4.454 4.454v12.186a1.114 1.114 0 102.228 0v-3.687h53.436v61.464a2.228 2.228 0 01-2.227 2.226H78.35v-5.276c0-1.843-1.5-3.342-3.342-3.342H49.31a1.114 1.114 0 100 2.227h25.697c.615 0 1.115.5 1.115 1.115v15.287c0 .615-.5 1.115-1.115 1.115H20.021c-.615 0-1.115-.5-1.115-1.115V86.065c0-.615.5-1.115 1.115-1.115h23.153c.615 0 1.114-.498 1.114-1.114V57.66h5.37a2.793 2.793 0 002.79-2.79V39.148a2.793 2.793 0 00-2.79-2.79h-24.15a2.793 2.793 0 00-2.791 2.79v6.747H21.58a4.908 4.908 0 00-4.902 4.902v7.257c0 2.703 2.199 4.902 4.902 4.902h8.902a2.69 2.69 0 012.688 2.688 2.69 2.69 0 01-2.688 2.687h-8.902a4.908 4.908 0 00-4.902 4.902c0 2.703 2.199 4.902 4.902 4.902h8.497c1.474 0 2.674 1.2 2.674 2.674v1.914H20.02a3.346 3.346 0 00-3.342 3.342v15.288c0 1.843 1.499 3.342 3.342 3.342h54.987a3.346 3.346 0 003.342-3.342v-7.784h17.148a4.459 4.459 0 004.453-4.453V19.152a4.459 4.459 0 00-4.453-4.454zm-70.553 24.45c0-.31.252-.563.562-.563h24.151c.31 0 .563.253.563.563v15.72c0 .31-.253.563-.563.563h-24.15a.563.563 0 01-.563-.562V39.148zm5.133 36.76H21.58a2.678 2.678 0 01-2.675-2.675c0-1.475 1.2-2.674 2.675-2.674h8.902a4.92 4.92 0 004.915-4.915 4.92 4.92 0 00-4.915-4.915h-8.902a2.678 2.678 0 01-2.675-2.675v-7.257c0-1.475 1.2-2.674 2.675-2.674h1.136v6.746a2.793 2.793 0 002.79 2.79H42.06v25.064h-7.08v-1.914a4.908 4.908 0 00-4.902-4.901zm14.21-50.484v-6.272c0-1.227.998-2.226 2.226-2.226h48.983c1.228 0 2.227.999 2.227 2.226v6.272H44.288z" fill="#00345E"/><path d="M51.026 65.137a1.114 1.114 0 10-2.228 0v.033a1.114 1.114 0 102.228 0v-.033zM49.912 74.125c-.615 0-1.114.498-1.114 1.114v.032a1.114 1.114 0 102.228 0v-.032c0-.616-.499-1.114-1.114-1.114zM24.06 89.397a1.114 1.114 0 10-2.227 0v.025a1.114 1.114 0 102.228 0v-.025zM29.52 89.397a1.114 1.114 0 10-2.228 0v.025a1.114 1.114 0 102.228 0v-.025zM33.866 90.536c.615 0 1.113-.499 1.113-1.114v-.025a1.114 1.114 0 10-2.227 0v.025c0 .615.498 1.114 1.114 1.114zM40.439 89.422v-.025a1.114 1.114 0 10-2.228 0v.025a1.114 1.114 0 102.228 0zM45.898 89.422v-.025a1.114 1.114 0 10-2.227 0v.025a1.114 1.114 0 102.227 0zM51.358 89.422v-.025a1.114 1.114 0 10-2.228 0v.025a1.114 1.114 0 102.228 0zM56.817 89.422v-.025a1.114 1.114 0 10-2.227 0v.025a1.114 1.114 0 102.227 0zM61.163 90.536c.615 0 1.114-.499 1.114-1.114v-.025a1.114 1.114 0 10-2.228 0v.025c0 .615.498 1.114 1.114 1.114zM66.622 90.536c.616 0 1.114-.499 1.114-1.114v-.025a1.114 1.114 0 10-2.228 0v.025c0 .615.5 1.114 1.114 1.114zM72.082 90.536c.615 0 1.114-.499 1.114-1.114v-.025a1.114 1.114 0 10-2.228 0v.025c0 .615.499 1.114 1.114 1.114zM24.562 93.697v.025a1.114 1.114 0 102.228 0v-.025a1.114 1.114 0 10-2.228 0zM30.022 93.697v.025a1.114 1.114 0 102.228 0v-.025a1.114 1.114 0 10-2.228 0zM37.71 93.722v-.025a1.114 1.114 0 10-2.228 0v.025a1.114 1.114 0 102.227 0zM43.169 93.722v-.025a1.114 1.114 0 10-2.228 0v.025a1.114 1.114 0 102.227 0zM47.514 92.583c-.615 0-1.114.498-1.114 1.114v.025a1.114 1.114 0 102.228 0v-.025c0-.616-.499-1.114-1.114-1.114zM54.088 93.722v-.025a1.114 1.114 0 10-2.228 0v.025a1.114 1.114 0 102.228 0zM59.547 93.722v-.025a1.114 1.114 0 10-2.228 0v.025a1.114 1.114 0 102.228 0zM65.007 93.722v-.025a1.114 1.114 0 10-2.228 0v.025a1.114 1.114 0 102.228 0zM70.466 93.722v-.025a1.114 1.114 0 10-2.228 0v.025a1.114 1.114 0 102.228 0zM22.947 96.882c-.615 0-1.114.499-1.114 1.114v.026a1.114 1.114 0 102.228 0v-.026c0-.615-.5-1.114-1.114-1.114zM28.406 96.882c-.615 0-1.114.499-1.114 1.114v.026a1.114 1.114 0 102.228 0v-.026c0-.615-.499-1.114-1.114-1.114zM32.752 98.022c0 .615.498 1.114 1.114 1.114h21.837a1.114 1.114 0 100-2.228H33.866c-.615 0-1.114.498-1.114 1.114zM60.049 98.022a1.114 1.114 0 102.227 0v-.026a1.114 1.114 0 10-2.227 0v.026zM65.508 98.022a1.114 1.114 0 102.228 0v-.026a1.114 1.114 0 10-2.228 0v.026zM70.968 98.022a1.114 1.114 0 102.228 0v-.026a1.114 1.114 0 10-2.228 0v.026z" fill="#00345E"/></svg>