<svg width="115" height="115" viewBox="0 0 115 115" fill="none" xmlns="http://www.w3.org/2000/svg"><path opacity=".1" d="M101.918 22.69v56.641a3.343 3.343 0 01-3.342 3.342H16.15a3.343 3.343 0 01-3.342-3.342v-56.64a3.343 3.343 0 013.342-3.342h82.426a3.343 3.343 0 013.342 3.342z" fill="#00345E"/><path d="M69.997 103.548H44.729l5.053-20.028h15.162l5.053 20.028z" fill="#ABC6C6"/><path d="M66.704 90.493H48.022l1.76-6.973h15.162l1.76 6.973z" fill="#8CA8A0"/><path d="M101.918 27.37v56.64a3.343 3.343 0 01-3.342 3.341H16.15a3.343 3.343 0 01-3.342-3.341V27.37a3.343 3.343 0 013.342-3.342h82.426a3.343 3.343 0 013.342 3.342z" fill="#fff"/><path d="M50.427 76.125a6.936 6.936 0 1113.873 0H50.427z" fill="#00345E"/><path d="M101.918 34.76v-7.39a3.342 3.342 0 00-3.342-3.342H16.15a3.342 3.342 0 00-3.342 3.342v7.39h89.11z" fill="#46EFB2"/><path d="M12.808 76.125v7.884a3.342 3.342 0 003.342 3.342h82.426a3.342 3.342 0 003.342-3.342v-7.884h-89.11z" fill="#CAD9E0"/><path d="M76.162 76.125c0-10.382-8.417-18.799-18.799-18.799s-18.799 8.417-18.799 18.8h-7.111c0-14.31 11.6-25.91 25.91-25.91s25.91 11.6 25.91 25.91h-7.111z" fill="#46EFB2"/><path d="M57.363 57.326c-10.382 0-18.799 8.417-18.799 18.8h-7.111c0-14.31 11.6-25.91 25.91-25.91v7.11z" fill="#4D9ABF"/><path d="M76.713 58.898l-5.039 5.04a18.747 18.747 0 00-14.31-6.613v-7.11c7.694 0 14.606 3.354 19.35 8.683z" fill="#76C2B5"/><path d="M57.363 50.215v7.11a18.747 18.747 0 00-14.31 6.612l-5.04-5.039c4.743-5.329 11.656-8.684 19.35-8.684z" fill="#006686"/><path d="M56.768 71.486l.03.02-.356.524a1.114 1.114 0 001.841 1.254l.357-.523.03.02a1.115 1.115 0 001.255-1.84l-.031-.022 4.344-6.378a1.114 1.114 0 00-1.841-1.254l-4.344 6.378-.031-.02a1.11 1.11 0 00-1.548.293 1.114 1.114 0 00.294 1.548z" fill="#00345E"/><path d="M36.19 41.462H21.358a1.141 1.141 0 010-2.283H36.19a1.141 1.141 0 010 2.282z" fill="#CAD9E0"/><path d="M32.18 45.694h-6.813a1.141 1.141 0 010-2.282h6.814a1.141 1.141 0 010 2.282z" fill="#00CEBD"/><path d="M93.369 41.462H78.535a1.141 1.141 0 010-2.283H93.37a1.141 1.141 0 010 2.282z" fill="#CAD9E0"/><path d="M89.36 45.694h-6.815a1.141 1.141 0 010-2.282h6.814a1.141 1.141 0 010 2.282z" fill="#00CEBD"/><path d="M30.299 56.833h-3.05c-.37 0-.669-.3-.669-.668v-5.458c0-.37.3-.669.669-.669h3.05c.37 0 .668.3.668.669v5.458c0 .369-.299.668-.668.668zM87.478 56.833h-3.05c-.37 0-.67-.3-.67-.668v-5.458c0-.37.3-.669.67-.669h3.05c.369 0 .668.3.668.669v5.458c0 .369-.3.668-.668.668z" fill="#E6E6E6"/><path d="M61.13 45.798a1.245 1.245 0 100-2.49 1.245 1.245 0 000 2.49zM57.363 45.798a1.245 1.245 0 100-2.49 1.245 1.245 0 000 2.49zM53.596 45.798a1.245 1.245 0 100-2.49 1.245 1.245 0 000 2.49z" fill="#00CEBD"/><path d="M21.292 28.264c-.615 0-1.114.499-1.114 1.114v.032a1.114 1.114 0 002.228 0v-.032c0-.616-.499-1.114-1.114-1.114zM25.597 28.264c-.615 0-1.114.499-1.114 1.114v.032a1.114 1.114 0 002.228 0v-.032c0-.616-.499-1.114-1.114-1.114zM29.902 28.264c-.615 0-1.114.499-1.114 1.114v.032a1.114 1.114 0 002.228 0v-.032c0-.616-.499-1.114-1.114-1.114z" fill="#00345E"/><path d="M98.576 22.914H16.15a4.46 4.46 0 00-4.456 4.455v56.64a4.46 4.46 0 004.456 4.456h31.236l-3.524 13.968h-3.415a1.114 1.114 0 000 2.228h33.832a1.114 1.114 0 000-2.228h-3.415L67.34 88.465h31.236a4.46 4.46 0 004.456-4.456v-7.884c0-.615-.499-1.114-1.114-1.114-.021 0-.041.006-.062.007-.02-.001-.04-.007-.061-.007H13.922V35.873h86.882V69.99a1.114 1.114 0 002.228 0V27.37a4.46 4.46 0 00-4.456-4.456zm-30.01 79.519H46.16l3.524-13.968h15.36l3.523 13.968zm32.238-25.194v6.77c0 1.229-1 2.228-2.228 2.228H16.15a2.23 2.23 0 01-2.228-2.228v-6.77h86.882zM13.922 33.645V27.37c0-1.228 1-2.227 2.228-2.227h82.426c1.229 0 2.228 1 2.228 2.227v6.276H13.922z" fill="#00345E"/></svg>