<svg width="115" height="115" viewBox="0 0 115 115" fill="none" xmlns="http://www.w3.org/2000/svg"><path opacity=".1" d="M101.601 22.914v56.64a3.343 3.343 0 01-3.342 3.342H15.833a3.343 3.343 0 01-3.342-3.342v-56.64a3.343 3.343 0 013.342-3.342h82.426a3.343 3.343 0 013.342 3.342z" fill="#00345E"/><path d="M69.68 103.771H44.411l5.053-20.028h15.161l5.053 20.028z" fill="#ABC6C6"/><path d="M66.386 90.716h-18.68l1.759-6.973h15.161l1.76 6.973z" fill="#8CA8A0"/><path d="M101.601 27.593v56.64a3.343 3.343 0 01-3.342 3.341H15.833a3.343 3.343 0 01-3.342-3.341v-56.64a3.343 3.343 0 013.342-3.342h82.426a3.343 3.343 0 013.342 3.342z" fill="#fff"/><path d="M12.491 34.982h89.11v41.366h-89.11V34.982z" fill="#006686"/><path d="M101.601 34.982v-7.39a3.342 3.342 0 00-3.342-3.341H15.833a3.342 3.342 0 00-3.342 3.342v7.39h89.11z" fill="#00CEBD"/><path d="M12.491 76.348v7.884a3.342 3.342 0 003.342 3.342h82.426a3.342 3.342 0 003.342-3.342v-7.884h-89.11z" fill="#CAD9E0"/><path d="M20.975 28.487c-.615 0-1.114.498-1.114 1.113v.033a1.114 1.114 0 102.228 0V29.6c0-.615-.5-1.113-1.114-1.113zM25.28 28.487c-.615 0-1.114.498-1.114 1.113v.033a1.114 1.114 0 102.228 0V29.6c0-.615-.5-1.113-1.114-1.113zM29.585 28.487c-.615 0-1.114.498-1.114 1.113v.033a1.114 1.114 0 002.228 0V29.6c0-.615-.499-1.113-1.114-1.113z" fill="#00345E"/><path d="M98.26 23.137H15.832a4.46 4.46 0 00-4.455 4.455v7.39c0 .616.498 1.114 1.114 1.114h87.995v34.117a1.114 1.114 0 002.228 0v-42.62a4.46 4.46 0 00-4.456-4.456zm2.227 10.731H13.605v-6.276c0-1.228 1-2.227 2.228-2.227H98.26c1.228 0 2.227 1 2.227 2.227v6.276zM101.601 75.234H13.605V41.117a1.114 1.114 0 10-2.228 0v43.115a4.46 4.46 0 004.456 4.456h31.236l-3.524 13.968H40.13a1.114 1.114 0 100 2.227h33.832a1.113 1.113 0 100-2.227h-3.416l-3.524-13.969H98.26a4.46 4.46 0 004.455-4.455v-7.884c0-.615-.498-1.114-1.113-1.114zm-33.352 27.422H45.842l3.524-13.969h15.36l3.523 13.969zm32.238-18.424c0 1.228-1 2.228-2.228 2.228H15.833a2.23 2.23 0 01-2.228-2.228v-6.77h86.882v6.77z" fill="#00345E"/><path d="M91.126 69.595a1.11 1.11 0 01-.788-.327 1.329 1.329 0 00-.946-.392c-.357 0-.693.14-.946.392a1.114 1.114 0 01-1.575-1.575 1.34 1.34 0 000-1.892 1.11 1.11 0 010-1.576 1.114 1.114 0 011.575 0c.253.254.589.393.946.393.358 0 .694-.14.946-.392a1.114 1.114 0 011.576 1.575 1.34 1.34 0 000 1.892 1.11 1.11 0 010 1.576 1.11 1.11 0 01-.788.326zM91.126 61.605a1.11 1.11 0 01-.788-.326 1.329 1.329 0 00-.946-.392c-.357 0-.693.139-.946.392a1.114 1.114 0 01-1.575-1.575 1.33 1.33 0 00.392-.947c0-.357-.14-.693-.392-.945a1.11 1.11 0 010-1.576 1.114 1.114 0 011.575 0 1.34 1.34 0 001.892 0 1.114 1.114 0 011.575 1.576 1.33 1.33 0 00-.392.946c0 .357.14.693.392.946a1.11 1.11 0 010 1.575 1.109 1.109 0 01-.787.326zM26.433 55.718a1.11 1.11 0 01-.788-.326 1.34 1.34 0 00-1.892 0 1.114 1.114 0 01-1.575-1.576 1.33 1.33 0 00.392-.946c0-.357-.14-.693-.392-.946a1.11 1.11 0 010-1.575 1.114 1.114 0 011.575 0 1.34 1.34 0 001.892 0 1.114 1.114 0 011.575 1.575 1.33 1.33 0 00-.392.946c0 .358.14.694.392.946a1.11 1.11 0 010 1.575 1.11 1.11 0 01-.787.327zM26.433 47.728a1.11 1.11 0 01-.788-.326 1.34 1.34 0 00-1.892 0 1.114 1.114 0 01-1.575-1.575c.252-.253.392-.589.392-.946s-.14-.694-.392-.946a1.11 1.11 0 010-1.576 1.114 1.114 0 011.575 0c.253.253.589.392.946.392.358 0 .694-.139.946-.391a1.114 1.114 0 011.576 1.575 1.33 1.33 0 00-.392.946c0 .357.14.693.392.946a1.11 1.11 0 010 1.575 1.114 1.114 0 01-.788.326z" fill="#67CED0"/><circle cx="57.046" cy="55.665" r="12.633" stroke="#46EFB2" stroke-width="4" stroke-dasharray="2 2"/></svg>