<svg width="115" height="116" viewBox="0 0 115 116" fill="none" xmlns="http://www.w3.org/2000/svg"><path opacity=".1" d="M101.073 57.055H86.086V30.188a3.69 3.69 0 00-3.69-3.69H15.218a3.69 3.69 0 00-3.69 3.69v48.1a3.69 3.69 0 003.69 3.69H80.41v11.73a2.46 2.46 0 002.46 2.46h18.203a2.46 2.46 0 002.46-2.46V59.515a2.46 2.46 0 00-2.46-2.46z" fill="#00345E"/><path d="M59.875 100.186H37.738l2.885-11.438 1.542-6.11h13.283l1.542 6.11 2.885 11.438z" fill="#ABC6C6"/><path d="M56.99 88.748H40.623l1.542-6.11h13.283l1.542 6.11z" fill="#8CA8A0"/><path d="M82.397 85.995h-67.18a3.69 3.69 0 01-3.69-3.69v-48.1a3.69 3.69 0 013.69-3.69h67.18a3.69 3.69 0 013.69 3.69v48.1a3.69 3.69 0 01-3.69 3.69z" fill="#F5F5F5"/><path d="M82.396 30.516h-17.69v55.48h17.69a3.69 3.69 0 003.69-3.69v-48.1a3.69 3.69 0 00-3.69-3.69z" fill="#E6E6E6"/><path d="M86.086 39.918v-5.712a3.69 3.69 0 00-3.69-3.69H15.218a3.69 3.69 0 00-3.69 3.69v5.712h74.56z" fill="#00CEBD"/><path d="M11.527 76.16v6.145a3.69 3.69 0 003.69 3.69h67.18a3.69 3.69 0 003.69-3.69V76.16h-74.56z" fill="#CAD9E0"/><path d="M101.073 100.185H82.87a2.46 2.46 0 01-2.46-2.46V63.533a2.46 2.46 0 012.46-2.46h18.203a2.46 2.46 0 012.46 2.46v34.192a2.46 2.46 0 01-2.46 2.46z" fill="#F5F5F5"/><path d="M96.654 64.57l1.139-3.497H86.149l1.14 3.497a1.23 1.23 0 001.169.849h7.027a1.23 1.23 0 001.17-.85z" fill="#CAD9E0"/><path d="M26.004 60.15a7.21 7.21 0 100-14.42 7.21 7.21 0 000 14.42z" fill="#46EFB2"/><path d="M26.004 60.15a7.21 7.21 0 100-14.42 7.21 7.21 0 000 14.42z" fill="#46EFB2"/><path d="M27.581 52.94l1.275-1.275a1.116 1.116 0 10-1.577-1.578l-1.276 1.275-1.275-1.275a1.116 1.116 0 00-1.577 1.578l1.275 1.275-1.275 1.275a1.116 1.116 0 101.577 1.578l1.275-1.275 1.276 1.275a1.112 1.112 0 001.577 0 1.116 1.116 0 000-1.578l-1.275-1.275z" fill="#F5F5F5"/><path d="M91.972 88.287a7.21 7.21 0 100-14.419 7.21 7.21 0 000 14.419z" fill="#46EFB2"/><path d="M91.972 88.287a7.21 7.21 0 100-14.419 7.21 7.21 0 000 14.419z" fill="#46EFB2"/><path d="M93.55 81.078l1.275-1.276a1.116 1.116 0 10-1.578-1.578L91.972 79.5l-1.275-1.275a1.116 1.116 0 00-1.578 1.577l1.275 1.276-1.275 1.275a1.116 1.116 0 101.578 1.578l1.275-1.275 1.275 1.275a1.112 1.112 0 001.578 0 1.116 1.116 0 000-1.578l-1.276-1.275z" fill="#F5F5F5"/><path d="M50.372 65.977H19.91a1.116 1.116 0 110-2.232h30.462a1.116 1.116 0 110 2.232zM50.372 58.535h-10.38a1.116 1.116 0 110-2.231h10.38a1.116 1.116 0 110 2.231zM50.372 54.572h-10.38a1.116 1.116 0 110-2.23h10.38a1.116 1.116 0 110 2.23zM50.372 70.402H19.91a1.116 1.116 0 110-2.231h30.462a1.116 1.116 0 110 2.231z" fill="#D9E4E3"/><path d="M62.141 46.76h5.132c.37 0 .67.299.67.669V66.58c0 .37-.3.67-.67.67h-5.132a.67.67 0 01-.67-.67V47.428c0-.37.3-.669.67-.669z" fill="#4D9ABF"/><path d="M18.96 34.089c-.615 0-1.114.499-1.114 1.114v.028a1.114 1.114 0 102.228 0v-.028c0-.615-.499-1.114-1.114-1.114zM22.732 34.089c-.616 0-1.114.499-1.114 1.114v.028a1.114 1.114 0 102.227 0v-.028c0-.615-.498-1.114-1.113-1.114zM26.503 34.089c-.615 0-1.114.499-1.114 1.114v.028a1.114 1.114 0 102.228 0v-.028c0-.615-.498-1.114-1.114-1.114z" fill="#00345E"/><path d="M101.073 59.96H87.2V34.205a4.81 4.81 0 00-4.804-4.804H15.217a4.809 4.809 0 00-4.804 4.804v5.712c0 .615.499 1.114 1.114 1.114h73.445V59.96H82.87a3.578 3.578 0 00-3.574 3.574v11.513H12.641V46.063a1.114 1.114 0 10-2.228 0v36.242a4.809 4.809 0 004.804 4.804h24.67L36.87 99.071h-2.883a1.114 1.114 0 100 2.228h29.641a1.114 1.114 0 000-2.228h-2.883L57.725 87.11H80.41c.615 0 1.114-.499 1.114-1.114V63.533c0-.742.604-1.346 1.346-1.346h2.471l.889 2.728a2.34 2.34 0 002.228 1.618h7.027c1.018 0 1.914-.65 2.229-1.618l.888-2.728h2.471c.743 0 1.346.604 1.346 1.346v34.192c0 .743-.603 1.346-1.346 1.346H82.87a1.348 1.348 0 01-1.346-1.346v-5.584a1.114 1.114 0 10-2.228 0v5.584a3.578 3.578 0 003.574 3.574h18.203a3.578 3.578 0 003.574-3.574V63.533a3.578 3.578 0 00-3.574-3.574zM12.641 38.803v-4.598a2.579 2.579 0 012.576-2.576h67.18a2.579 2.579 0 012.575 2.576v4.598h-72.33zm45.805 60.267h-19.28l3.02-11.962h13.242l3.018 11.962zm-43.229-14.19a2.579 2.579 0 01-2.576-2.575v-5.032h66.655v7.608H15.217zm80.378-20.656a.116.116 0 01-.11.08h-7.027a.116.116 0 01-.11-.08l-.664-2.038h8.575l-.664 2.038z" fill="#00345E"/><path d="M71.986 59.509a1.11 1.11 0 001.575 0l1.302-1.301a1.114 1.114 0 000-1.576l-1.302-1.302a1.114 1.114 0 10-1.575 1.576l.514.514-.514.514a1.114 1.114 0 000 1.575z" fill="#00345E"/></svg>