<svg width="115" height="115" viewBox="0 0 115 115" fill="none" xmlns="http://www.w3.org/2000/svg"><path opacity=".1" d="M101.043 51.285a2.223 2.223 0 00-2.207-1.94h-5.15C90.78 33.609 78.87 21.03 63.495 17.15c.05-.407.079-.821.079-1.242 0-5.571-4.516-10.087-10.087-10.087s-10.087 4.516-10.087 10.087c0 .416.028.825.077 1.228a40.687 40.687 0 00-11.803 5.05 10.068 10.068 0 00-3.183-.516c-5.571 0-10.087 4.516-10.087 10.087 0 1.098.178 2.155.502 3.145a40.72 40.72 0 00-6.363 21.92c0 22.596 18.318 40.915 40.914 40.915a40.724 40.724 0 0020.145-5.298l5.875 3.653a5.01 5.01 0 005.29 0l15.126-9.405a2.22 2.22 0 001.027-1.568c.591-4.088.97-10.351.97-17.372 0-6.519-.326-12.384-.846-16.462z" fill="#00345E"/><path d="M53.456 101.742c22.597 0 40.915-18.318 40.915-40.915 0-22.596-18.318-40.914-40.915-40.914-22.596 0-40.914 18.318-40.914 40.915 0 22.596 18.318 40.914 40.914 40.914z" fill="#faa926"/><path d="M38.576 39.1c0 5.57-4.515 10.087-10.086 10.087-5.376 0-9.766-4.203-10.069-9.5a41.14 41.14 0 019.27-10.643c.265-.02.53-.032.799-.032 5.571 0 10.086 4.517 10.086 10.089zM63.573 23.252c0 5.569-4.515 10.086-10.087 10.086-5.571 0-10.086-4.517-10.086-10.086 0-.737.08-1.458.23-2.15a40.99 40.99 0 019.827-1.188c3.41 0 6.722.416 9.889 1.204.149.687.227 1.402.227 2.134zM94.37 60.827c0 16.692-9.993 31.049-24.325 37.412l-5.694-3.542a2.214 2.214 0 01-1.028-1.567c-.592-4.09-.97-10.35-.97-17.373 0-6.52.327-12.385.848-16.461a2.222 2.222 0 012.205-1.94h28.817c.098 1.143.147 2.302.147 3.47z" fill="#67CED0"/><path d="M28.49 45.85c5.57 0 10.087-4.517 10.087-10.088 0-5.57-4.517-10.087-10.087-10.087-5.571 0-10.087 4.516-10.087 10.087S22.919 45.85 28.49 45.85z" fill="#006686"/><path d="M32.187 33.93a3.702 3.702 0 00-3.697-3.697 3.702 3.702 0 00-3.698 3.698c0 1.005.404 1.916 1.057 2.584a3.684 3.684 0 00-1.058 2.584 1.114 1.114 0 102.228 0c0-.81.66-1.47 1.47-1.47.811 0 1.47.66 1.47 1.47a1.114 1.114 0 102.228 0 3.684 3.684 0 00-1.057-2.584 3.685 3.685 0 001.057-2.584zm-3.697-1.47c.81 0 1.47.66 1.47 1.47 0 .811-.66 1.47-1.47 1.47-.81 0-1.47-.659-1.47-1.47 0-.81.66-1.47 1.47-1.47z" fill="#faa926"/><path d="M53.486 30c5.57 0 10.087-4.516 10.087-10.087 0-5.57-4.516-10.087-10.087-10.087-5.57 0-10.087 4.516-10.087 10.087S47.915 30 53.486 30z" fill="#46EFB2"/><path d="M57.184 18.081a3.702 3.702 0 00-3.698-3.698 3.702 3.702 0 00-3.698 3.698c0 1.005.404 1.917 1.058 2.584a3.684 3.684 0 00-1.058 2.585 1.114 1.114 0 102.228 0c0-.811.66-1.47 1.47-1.47.81 0 1.47.659 1.47 1.47a1.114 1.114 0 102.228 0 3.684 3.684 0 00-1.058-2.585 3.684 3.684 0 001.058-2.584zm-3.698-1.47c.81 0 1.47.66 1.47 1.47 0 .811-.66 1.47-1.47 1.47-.81 0-1.47-.659-1.47-1.47 0-.81.66-1.47 1.47-1.47z" fill="#faa926"/><path d="M38.477 108.297c5.57 0 10.087-4.516 10.087-10.087s-4.516-10.087-10.087-10.087c-5.57 0-10.087 4.516-10.087 10.087s4.516 10.087 10.087 10.087z" fill="#006686"/><path d="M42.175 96.378a3.702 3.702 0 00-3.698-3.698 3.702 3.702 0 00-3.698 3.698c0 1.005.404 1.917 1.057 2.584a3.684 3.684 0 00-1.057 2.584 1.113 1.113 0 102.228 0c0-.81.66-1.47 1.47-1.47.81 0 1.47.66 1.47 1.47a1.113 1.113 0 102.228 0 3.683 3.683 0 00-1.058-2.584 3.684 3.684 0 001.058-2.584zm-3.698-1.47c.81 0 1.47.66 1.47 1.47 0 .81-.66 1.47-1.47 1.47-.81 0-1.47-.66-1.47-1.47 0-.81.66-1.47 1.47-1.47z" fill="#faa926"/><path d="M99.892 90.692a2.22 2.22 0 001.027-1.567c.591-4.09.97-10.352.97-17.373 0-6.52-.326-12.384-.846-16.462a2.223 2.223 0 00-2.207-1.94h-33.43c-1.118 0-2.065.83-2.206 1.94-.52 4.078-.846 9.943-.846 16.462 0 7.021.378 13.284.97 17.373a2.22 2.22 0 001.026 1.567l15.126 9.405a5.01 5.01 0 005.29 0l15.126-9.405z" fill="#00CEBD"/><path d="M102.148 55.15a3.344 3.344 0 00-3.312-2.913H78.993c-.615-4.805-1.744-9.337-3.3-13.422 2.88-1.107 5.55-2.432 7.938-3.955a39.798 39.798 0 017.243 12.37 1.114 1.114 0 102.093-.762 42.04 42.04 0 00-28.29-26.15c.005-.134.01-.269.01-.405 0-6.176-5.025-11.2-11.2-11.2-6.177 0-11.202 5.024-11.202 11.2 0 .13.005.258.01.386a41.774 41.774 0 00-10.784 4.68 11.162 11.162 0 00-3.021-.418c-6.176 0-11.201 5.025-11.201 11.201s5.025 11.201 11.2 11.201c.113 0 .223-.005.334-.008-.885 4.099-1.367 8.38-1.437 12.759H13.672a39.484 39.484 0 013.123-14.407 1.114 1.114 0 10-2.05-.87 41.763 41.763 0 00-3.317 16.39c0 6.753 1.553 13.203 4.617 19.17a42.41 42.41 0 0011.951 14.267 11.142 11.142 0 00-.72 3.946c0 6.176 5.025 11.2 11.201 11.2 4.62 0 8.596-2.812 10.306-6.815a42.075 42.075 0 0024.788-4.858l5.317 3.306c.998.62 2.116.93 3.234.93 1.118 0 2.236-.31 3.234-.93l15.125-9.405a3.325 3.325 0 001.541-2.354c.624-4.311.981-10.701.981-17.532 0-6.29-.312-12.341-.855-16.603zm-25.403-2.913H65.407a3.343 3.343 0 00-3.312 2.912 87.857 87.857 0 00-.445 4.565h-7.08V42.742c6.704-.11 13.232-1.22 19.036-3.176 1.465 3.847 2.536 8.125 3.14 12.671zM35.71 87.356a43.133 43.133 0 01-1.556-3.207c5.535-1.85 11.769-2.9 18.188-3.008v19.443a14.688 14.688 0 01-2.823-.503c.103-.61.159-1.234.159-1.871 0-6.176-5.025-11.201-11.2-11.201-.956 0-1.883.12-2.768.347zm25.685-7.98a66.978 66.978 0 00-6.825-.463V61.94h6.935a175.804 175.804 0 00-.265 9.811c0 2.64.054 5.211.155 7.624zm-9.053-.463c-6.705.11-13.229 1.218-19.03 3.172-2.292-6.015-3.578-12.955-3.698-20.144h22.728v16.972zm2.228 2.228c2.345.04 4.665.209 6.937.493.167 2.92.409 5.536.714 7.65.141.974.703 1.833 1.542 2.354l3.175 1.974c-3.684 4.24-7.927 6.629-12.368 6.971V81.141zM38.234 30.249c1.58-2.193 3.31-4.033 5.16-5.48 1.654 3.425 5.001 5.885 8.948 6.287v9.458c-4.52-.074-8.921-.6-13.114-1.57a11.16 11.16 0 00-.994-8.695zm25.328-5.448c3.706 2.914 6.856 7.316 9.203 12.702-5.54 1.85-11.777 2.902-18.195 3.011v-9.453c3.96-.383 7.324-2.835 8.992-6.26zm18.544 8.387c-2.191 1.365-4.628 2.56-7.25 3.565-2.623-6.065-6.229-10.993-10.499-14.144l.014-.062a39.752 39.752 0 0117.735 10.64zM53.486 10.94c4.948 0 8.973 4.025 8.973 8.973s-4.025 8.973-8.973 8.973-8.973-4.025-8.973-8.973 4.025-8.973 8.973-8.973zm-10.89 11.587l.01.043c-2.061 1.512-3.986 3.45-5.736 5.771a11.273 11.273 0 00-2.796-2.282 39.535 39.535 0 018.522-3.532zm-23.08 13.235c0-4.948 4.026-8.973 8.974-8.973 4.947 0 8.973 4.025 8.973 8.973s-4.026 8.973-8.973 8.973c-4.948 0-8.973-4.025-8.973-8.973zm11.66 10.873a11.244 11.244 0 007.195-5.605c4.463 1.06 9.155 1.636 13.971 1.712v16.972H29.614c.074-4.503.6-8.895 1.563-13.079zM13.673 61.941h13.714c.12 7.44 1.453 14.64 3.832 20.9-2.872 1.105-5.538 2.425-7.923 3.944a39.94 39.94 0 01-5.268-7.805 39.3 39.3 0 01-4.355-17.039zM24.82 88.46c2.188-1.362 4.618-2.552 7.231-3.556.48 1.112.997 2.188 1.546 3.226a11.276 11.276 0 00-4.587 4.105 39.978 39.978 0 01-4.19-3.775zm13.656 18.724c-4.948 0-8.973-4.025-8.973-8.973s4.025-8.973 8.973-8.973 8.973 4.025 8.973 8.973-4.025 8.973-8.973 8.973zm25.777-8.048c1.608-1.175 3.147-2.623 4.598-4.332l2.525 1.57a39.56 39.56 0 01-7.123 2.762zm35.563-10.17a1.105 1.105 0 01-.513.781l-15.125 9.405a3.873 3.873 0 01-4.115 0l-15.125-9.404a1.106 1.106 0 01-.514-.782c-.608-4.21-.958-10.484-.958-17.213 0-6.2.306-12.149.838-16.321a1.11 1.11 0 011.101-.966h33.43a1.11 1.11 0 011.101.966c.532 4.172.838 10.121.838 16.321 0 6.73-.349 13.003-.958 17.214z" fill="#00345E"/><path d="M82.122 60.026v13.707H69.041c-.007-.656-.011-1.317-.011-1.98 0-3.97.127-7.816.36-11.108a.667.667 0 01.665-.619h12.067zM69.04 73.733h13.082v20.148l-12.165-7.564a.663.663 0 01-.312-.496c-.34-3.319-.555-7.59-.604-12.088z" fill="#fff"/><path d="M95.214 71.753c0 .663-.004 1.324-.01 1.98H82.121V60.026h12.065c.35 0 .641.27.666.618.233 3.293.361 7.139.361 11.109zM95.203 73.733c-.05 4.499-.264 8.77-.604 12.088a.665.665 0 01-.312.496l-12.165 7.564V73.733h13.081z" fill="#fff"/><path d="M88.308 70.28l-8.08 6.575-2.94-3.44a1.72 1.72 0 00-2.613 2.234l4.03 4.717c.018.022.038.04.057.061.02.02.042.046.064.067l.077.067c.023.02.045.04.069.058.027.02.056.039.084.058.024.016.047.033.073.048l.091.049c.025.013.049.027.074.038.033.015.066.027.1.04.024.01.048.02.073.028.034.012.07.02.106.03l.073.02c.037.008.075.012.112.018.024.003.047.009.07.011.046.005.091.006.137.007.016 0 .031.003.047.003.05 0 .098-.002.147-.006.008 0 .016-.003.023-.003.04-.004.081-.01.122-.016l.044-.01.099-.021.054-.016.086-.028.06-.023.078-.032.062-.032c.024-.012.048-.023.071-.037l.063-.038.066-.043c.022-.015.04-.03.06-.045.017-.012.033-.023.049-.036l9.383-7.634a1.72 1.72 0 10-2.168-2.67l-.003.002z" fill="#083863"/></svg>