<svg width="94" height="94" viewBox="0 0 94 94" fill="none" xmlns="http://www.w3.org/2000/svg"><g opacity=".1" fill="#470047"><path opacity=".1" d="M75.242 12.098H18.795a1.819 1.819 0 00-1.82 1.82V21.2c0 1.004.815 1.819 1.82 1.819H75.24a1.819 1.819 0 001.82-1.82v-7.283a1.819 1.819 0 00-1.82-1.819zM75.24 29.683H18.795a1.819 1.819 0 00-1.819 1.819v7.283c0 1.005.814 1.819 1.819 1.819h56.447a1.819 1.819 0 001.819-1.819v-7.283a1.819 1.819 0 00-1.82-1.82zM75.24 47.267H18.795a1.819 1.819 0 00-1.819 1.819v7.283c0 1.005.814 1.82 1.819 1.82h56.447a1.819 1.819 0 001.819-1.82v-7.283a1.819 1.819 0 00-1.82-1.82zM60.569 70.92H33.465a1.819 1.819 0 00-1.819 1.819v3.629c0 1.005.815 1.819 1.82 1.819h27.102a1.819 1.819 0 001.819-1.82V72.74a1.82 1.82 0 00-1.82-1.82z"/></g><path d="M49.715 60.32v4.91a1.818 1.818 0 01-1.82 1.82H46.14a1.818 1.818 0 01-1.82-1.82v-4.91h5.396z" fill="#470047"/><path d="M44.32 60.32h5.395v3.926H44.32V60.32z" fill="#470047"/><path d="M20.22 24.347h53.596v29.587H20.219V24.347z" fill="#470047"/><path d="M20.22 24.347h53.596v5.07H20.219v-5.07zM20.22 36.08h53.596V47H20.219V36.08z" fill="#470047"/><path d="M75.24 26.835H18.795a1.819 1.819 0 01-1.819-1.82v-7.282c0-1.005.814-1.82 1.82-1.82H75.24c1.004 0 1.819.815 1.819 1.82v7.283a1.819 1.819 0 01-1.82 1.819z" fill="#FAA926"/><path d="M25.145 22.393a1.018 1.018 0 100-2.037 1.018 1.018 0 000 2.037zM28.224 22.393a1.018 1.018 0 100-2.037 1.018 1.018 0 000 2.037zM31.304 22.393a1.018 1.018 0 100-2.037 1.018 1.018 0 000 2.037z" fill="#E1EBE0"/><path d="M51.924 20.463H37.966c-.475 0-.9.348-.946.822a.911.911 0 00.907 1h13.997a.911.911 0 000-1.822z" fill="#CCFFF0"/><path d="M70.022 20.463H56.065c-.476 0-.9.348-.946.822a.911.911 0 00.907 1h13.996a.911.911 0 000-1.822z" fill="#4D9ABF"/><path d="M75.24 44.42H18.795a1.819 1.819 0 01-1.819-1.82v-7.283c0-1.005.814-1.819 1.82-1.819H75.24c1.004 0 1.819.814 1.819 1.819V42.6a1.819 1.819 0 01-1.82 1.82z" fill="#FAA926"/><path d="M25.145 39.977a1.018 1.018 0 100-2.036 1.018 1.018 0 000 2.036zM28.224 39.977a1.018 1.018 0 100-2.036 1.018 1.018 0 000 2.036zM31.304 39.977a1.018 1.018 0 100-2.036 1.018 1.018 0 000 2.036z" fill="#E1EBE0"/><path d="M51.924 38.048H37.966c-.475 0-.9.348-.946.821a.911.911 0 00.907 1h13.997a.911.911 0 000-1.821z" fill="#CCFFF0"/><path d="M70.022 38.048H56.065c-.476 0-.9.348-.946.821a.911.911 0 00.907 1h13.996a.911.911 0 000-1.821z" fill="#4D9ABF"/><path d="M75.24 62.004H18.795a1.819 1.819 0 01-1.819-1.82v-7.282c0-1.005.814-1.82 1.82-1.82H75.24c1.004 0 1.819.815 1.819 1.82v7.283a1.819 1.819 0 01-1.82 1.819z" fill="#FAA926"/><path d="M25.145 57.561a1.018 1.018 0 100-2.036 1.018 1.018 0 000 2.036zM28.224 57.561a1.018 1.018 0 100-2.036 1.018 1.018 0 000 2.036zM31.304 57.561a1.018 1.018 0 100-2.036 1.018 1.018 0 000 2.036z" fill="#E1EBE0"/><path d="M51.924 55.632H37.966c-.475 0-.9.348-.946.822a.911.911 0 00.907 1h13.997a.911.911 0 000-1.822z" fill="#CCFFF0"/><path d="M70.022 55.632H56.065c-.476 0-.9.348-.946.822a.911.911 0 00.907 1h13.996a.911.911 0 000-1.822z" fill="#4D9ABF"/><path d="M60.569 82.002H33.467a1.819 1.819 0 01-1.82-1.819v-3.629c0-1.005.815-1.819 1.82-1.819h27.102c1.004 0 1.819.814 1.819 1.82v3.628a1.82 1.82 0 01-1.82 1.82z" fill="#470047"/><path d="M85.224 77.46H63.296v-.906a2.73 2.73 0 00-2.727-2.727h-8.542a.908.908 0 100 1.817h8.541c.503 0 .91.408.91.91v3.63c0 .502-.407.91-.91.91H33.466a.911.911 0 01-.91-.91v-3.63c0-.502.408-.91.91-.91h13.551a.908.908 0 00.909-.909v-6.778a2.73 2.73 0 002.698-2.726v-2.318h24.617a2.73 2.73 0 002.727-2.728v-7.283a2.73 2.73 0 00-2.727-2.728h-.516v-4.846h.516a2.73 2.73 0 002.727-2.727v-7.284a2.73 2.73 0 00-2.727-2.727h-.516v-4.847h.516a2.73 2.73 0 002.727-2.727v-7.283a2.73 2.73 0 00-2.727-2.728H18.794a2.73 2.73 0 00-2.727 2.728v7.283a2.73 2.73 0 002.727 2.728h.516v4.846h-.516a2.73 2.73 0 00-2.727 2.727v7.284a2.73 2.73 0 002.727 2.727h.516v4.846h-.516a2.73 2.73 0 00-2.727 2.728v7.283a2.73 2.73 0 002.727 2.728h24.617v2.318a2.73 2.73 0 002.698 2.726v5.87H33.466a2.73 2.73 0 00-2.727 2.728v.906H8.81a.908.908 0 100 1.817h21.928v.906a2.73 2.73 0 002.728 2.727h27.102a2.73 2.73 0 002.727-2.727v-.906h21.928a.908.908 0 100-1.818zm-67.34-52.444v-7.283c0-.502.408-.91.91-.91h56.447c.502 0 .91.408.91.91v7.283c0 .502-.408.91-.91.91H18.794a.911.911 0 01-.91-.91zm0 17.585v-7.284c0-.502.408-.91.91-.91h1.425a.908.908 0 00.909-.909V27.744h51.78v4.846h-47.68a.909.909 0 000 1.817h50.013c.502 0 .91.408.91.91v7.284c0 .502-.408.91-.91.91H18.794a.912.912 0 01-.91-.91zm3.243 2.727h51.78v4.846h-51.78v-4.846zm-3.243 14.857v-7.283c0-.502.408-.91.91-.91h56.447c.502 0 .91.408.91.91v7.283c0 .502-.408.91-.91.91H18.794a.911.911 0 01-.91-.91zm27.344 5.046v-2.318h3.58v2.318c0 .502-.41.91-.911.91h-1.759a.912.912 0 01-.91-.91z" fill="#470047"/></svg>