<svg width="62" height="62" viewBox="0 0 62 62" fill="none" xmlns="http://www.w3.org/2000/svg"><path opacity=".1" d="M54.883 9.887H47.87V8.1c0-.986-.8-1.787-1.787-1.787H16.3c-.986 0-1.787.8-1.787 1.787v1.787H7.501c-.987 0-1.787.801-1.787 1.787v37.44c0 .986.8 1.787 1.787 1.787h7.011v1.787c0 .987.8 1.787 1.787 1.787h29.785c.987 0 1.787-.8 1.787-1.787v-1.787h7.012c.986 0 1.787-.8 1.787-1.787v-37.44c0-.986-.8-1.787-1.787-1.787z" fill="#00345E"/><path d="M54.883 12.387h-11.3v41.014h11.3c.986 0 1.787-.8 1.787-1.787v-37.44c0-.986-.8-1.787-1.787-1.787z" fill="#F5F5F5"/><path d="M52.16 39.566h-8.577v13.835h8.578c.197 0 .357-.16.357-.357v-13.12a.357.357 0 00-.358-.358z" fill="#E6E6E6"/><path d="M52.16 22.606h-8.577v13.835h8.578c.197 0 .357-.16.357-.357v-13.12a.357.357 0 00-.358-.358z" fill="#4D9ABF"/><path d="M54.883 12.387h-11.3v5.74H56.67v-3.952c0-.988-.8-1.788-1.787-1.788z" fill="#006686"/><path d="M18.444 12.387H7.5c-.987 0-1.787.801-1.787 1.787v37.44c0 .987.8 1.787 1.787 1.787h10.943V12.387z" fill="#F5F5F5"/><path d="M18.444 48.351V32.625H9.27a.357.357 0 00-.358.357v15.012c0 .197.16.357.358.357h9.174z" fill="#E6E6E6"/><path d="M18.444 29.544V24.54H9.27a.357.357 0 00-.358.357v4.29c0 .197.16.357.358.357h9.174z" fill="#67CED0"/><path d="M18.444 12.387H7.5c-.987 0-1.787.8-1.787 1.787v3.953h12.73v-5.74z" fill="#46EFB2"/><path d="M47.871 10.6v44.588c0 .987-.8 1.787-1.787 1.787H16.3c-.986 0-1.787-.8-1.787-1.787V10.6c0-.986.8-1.787 1.787-1.787h29.785c.987 0 1.787.8 1.787 1.787z" fill="#F5F5F5"/><path d="M14.512 18.139h33.36v16.084h-33.36V18.139z" fill="#E6E6E6"/><path d="M47.871 18.139v12.545c-1.38.575-2.894.89-4.48.89-6.463 0-11.701-5.24-11.701-11.702 0-.588.044-1.167.127-1.733h16.054z" fill="#46EFB2"/><path d="M47.871 14.552V10.6c0-.987-.8-1.787-1.787-1.787H16.3c-.987 0-1.787.8-1.787 1.787v3.952h33.36z" fill="#00CEBD"/><path d="M54.883 11.792h-6.416V10.6a2.385 2.385 0 00-2.383-2.382H16.3a2.385 2.385 0 00-2.382 2.382v1.192H7.5a2.385 2.385 0 00-2.383 2.383v37.439a2.385 2.385 0 002.383 2.382h3.732a.595.595 0 100-1.19H7.501a1.193 1.193 0 01-1.192-1.192V18.722h7.608v36.466a2.385 2.385 0 002.382 2.383h29.785a2.385 2.385 0 002.382-2.383v-1.192h6.417a2.385 2.385 0 002.382-2.382v-37.44a2.385 2.385 0 00-2.382-2.382zm0 1.19c.657 0 1.191.536 1.191 1.193v3.356h-7.607v-4.548h6.416zM16.299 9.41h29.785c.657 0 1.192.534 1.192 1.191v3.357H15.107V10.6c0-.657.535-1.191 1.192-1.191zM6.31 17.53v-3.356c0-.658.535-1.192 1.192-1.192h6.416v4.548H6.309zm48.574 35.275h-6.416v-31.4a.595.595 0 00-1.191 0v33.782c0 .657-.535 1.192-1.192 1.192H16.3a1.193 1.193 0 01-1.191-1.192v-40.04h32.168v2.979c0 .328.266.595.595.595h8.203v32.892c0 .657-.534 1.192-1.191 1.192z" fill="#00345E"/><path d="M10.25 14.653a.595.595 0 00-.595.595v.018a.595.595 0 101.191 0v-.018a.595.595 0 00-.595-.595zM12.553 14.653a.595.595 0 00-.595.595v.018a.595.595 0 101.19 0v-.018a.595.595 0 00-.595-.595zM19.05 12.287a.595.595 0 00.595-.596v-.017a.595.595 0 00-1.191 0v.018c0 .328.267.595.595.595zM21.352 12.287a.595.595 0 00.595-.596v-.017a.595.595 0 00-1.19 0v.018c0 .328.266.595.595.595zM23.654 12.287a.595.595 0 00.595-.596v-.017a.595.595 0 10-1.19 0v.018c0 .328.266.595.595.595zM43.811 24.377a.596.596 0 00-.842.842l.276.275-.276.275a.595.595 0 10.842.842l.696-.696a.595.595 0 000-.842l-.696-.696zM19.414 24.377a.595.595 0 00-.842 0l-.696.696a.595.595 0 000 .842l.696.696a.593.593 0 00.842 0 .595.595 0 000-.842l-.275-.275.275-.276a.595.595 0 000-.841zM29.177 32.712a.666.666 0 100-1.332.666.666 0 000 1.332z" fill="#00345E"/><path d="M31.192 32.712a.666.666 0 100-1.332.666.666 0 000 1.332zM33.206 32.712a.666.666 0 100-1.332.666.666 0 000 1.332z" fill="#A8CFC8"/><path d="M24.454 43.506h-7.466a.357.357 0 01-.358-.357v-5.322c0-.197.16-.357.358-.357h7.466c.197 0 .357.16.357.357v5.322c0 .197-.16.357-.357.357z" fill="#00CEBD"/><path d="M23.213 43.506h-2.86v-3.503c0-.197.16-.357.358-.357h2.144c.198 0 .358.16.358.357v3.503z" fill="#67CED0"/><path d="M22.79 46.55h-4.139a.597.597 0 110-1.194h4.14a.597.597 0 110 1.194z" fill="#46EFB2"/><path d="M24.513 50.834h-7.286a.597.597 0 110-1.194h7.286a.597.597 0 010 1.194zM24.513 53.157h-7.286a.597.597 0 010-1.194h7.286a.597.597 0 010 1.194z" fill="#D9E4E3"/><path d="M34.776 43.506h-7.467a.357.357 0 01-.357-.357v-5.322c0-.197.16-.357.357-.357h7.466c.198 0 .358.16.358.357v5.322c0 .197-.16.357-.358.357z" fill="#00CEBD"/><path d="M33.535 43.506h-2.86v-3.503c0-.197.16-.357.358-.357h2.144c.198 0 .358.16.358.357v3.503z" fill="#67CED0"/><path d="M33.112 46.55h-4.14a.597.597 0 110-1.194h4.14a.597.597 0 010 1.194z" fill="#46EFB2"/><path d="M34.835 50.834h-7.286a.597.597 0 110-1.194h7.286a.597.597 0 010 1.194zM34.835 53.157h-7.286a.597.597 0 010-1.194h7.286a.597.597 0 010 1.194z" fill="#D9E4E3"/><path d="M45.097 43.506h-7.466a.357.357 0 01-.357-.357v-5.322c0-.197.16-.357.357-.357h7.466c.198 0 .358.16.358.357v5.322c0 .197-.16.357-.358.357z" fill="#00CEBD"/><path d="M43.856 43.506h-2.859v-3.503c0-.197.16-.357.358-.357h2.144c.198 0 .358.16.358.357v3.503z" fill="#67CED0"/><path d="M43.434 46.55h-4.14a.597.597 0 110-1.194h4.14a.597.597 0 010 1.194z" fill="#46EFB2"/><path d="M45.156 50.834h-7.285a.597.597 0 110-1.194h7.285a.597.597 0 010 1.194zM45.156 53.157h-7.285a.597.597 0 010-1.194h7.285a.597.597 0 010 1.194z" fill="#D9E4E3"/></svg>